<mxfile host="app.diagrams.net" modified="2021-09-19T15:51:17.994Z" agent="5.0 (Windows NT 10.0; Win64; x64) AppleWebKit/537.36 (KHTML, like Gecko) Chrome/93.0.4577.82 Safari/537.36" etag="uojUExDqh6hb7QWtGHZt" version="15.2.9" type="github">
  <diagram id="ss4A7_WSrRReiwfbnaD8" name="Page-1">
    <mxGraphModel dx="2062" dy="1160" grid="0" gridSize="10" guides="1" tooltips="1" connect="1" arrows="1" fold="1" page="1" pageScale="1" pageWidth="1654" pageHeight="1169" math="0" shadow="0">
      <root>
        <mxCell id="0" />
        <mxCell id="1" parent="0" />
        <mxCell id="_qaNBhC_KMGZr9s5L9kp-27" value="" style="shape=image;verticalLabelPosition=bottom;labelBackgroundColor=#ffffff;verticalAlign=top;aspect=fixed;imageAspect=0;image=data:image/png,iVBORw0KGgoAAAANSUhEUgAAAKYAAAAFCAYAAADPAJc3AAAAgUlEQVRIDe3XQQkAIRAF0IlgBKN4NIJHmxjDGEYwikdj/GWEgd0E/oURPl5Fn/IVACilIKVEm5wzWmvU6b1jzkmdvbce9y+G6CpjjBARj+/BdQNrrXNxHKZjvI7x/Sg6TAdJBdJwfmCyd6MxBnW/1P5ba6Xt6PZ/CCFQYjSUOhvMBzu4TiBN3omEAAAAAElFTkSuQmCC;" vertex="1" parent="1">
          <mxGeometry x="145" y="79" width="166" height="5" as="geometry" />
        </mxCell>
        <mxCell id="_qaNBhC_KMGZr9s5L9kp-28" value="" style="shape=image;verticalLabelPosition=bottom;labelBackgroundColor=#ffffff;verticalAlign=top;aspect=fixed;imageAspect=0;image=data:image/png,iVBORw0KGgoAAAANSUhEUgAAAJQAAAAECAYAAABoWhaXAAAAOUlEQVRIDWNgYGD4P4pHw4DSNPAfChgoNWhU/2hiBKUBGBhNUKMlNFVqqNEENZqQqJKQYDUULEEBAKsEZbe6GvysAAAAAElFTkSuQmCC;" vertex="1" parent="1">
          <mxGeometry x="159" y="160" width="143" height="3.86" as="geometry" />
        </mxCell>
        <mxCell id="_qaNBhC_KMGZr9s5L9kp-29" value="" style="shape=image;verticalLabelPosition=bottom;labelBackgroundColor=#ffffff;verticalAlign=top;aspect=fixed;imageAspect=0;image=data:image/png,iVBORw0KGgoAAAANSUhEUgAAAHwAAAAECAYAAABMb1sSAAAAL0lEQVRIDWNgYGD4P4qHfxj8hwKG0cge/pENimMYGI3wEVLCjUb4CIloWAkOi3AABs4GF2ClBkgAAAAASUVORK5CYII=;" vertex="1" parent="1">
          <mxGeometry x="166" y="235" width="124" height="4" as="geometry" />
        </mxCell>
        <mxCell id="_qaNBhC_KMGZr9s5L9kp-30" value="" style="endArrow=none;html=1;exitX=0.024;exitY=0.6;exitDx=0;exitDy=0;exitPerimeter=0;strokeWidth=2;" edge="1" parent="1" source="_qaNBhC_KMGZr9s5L9kp-27">
          <mxGeometry width="50" height="50" relative="1" as="geometry">
            <mxPoint x="144" y="82" as="sourcePoint" />
            <mxPoint x="175" y="308" as="targetPoint" />
          </mxGeometry>
        </mxCell>
        <mxCell id="_qaNBhC_KMGZr9s5L9kp-31" value="" style="endArrow=none;html=1;exitX=1;exitY=0.25;exitDx=0;exitDy=0;strokeWidth=2;" edge="1" parent="1" source="_qaNBhC_KMGZr9s5L9kp-27">
          <mxGeometry width="50" height="50" relative="1" as="geometry">
            <mxPoint x="347" y="89" as="sourcePoint" />
            <mxPoint x="278" y="312" as="targetPoint" />
          </mxGeometry>
        </mxCell>
        <mxCell id="_qaNBhC_KMGZr9s5L9kp-32" value="" style="shape=image;verticalLabelPosition=bottom;labelBackgroundColor=#ffffff;verticalAlign=top;aspect=fixed;imageAspect=0;image=data:image/png,iVBORw0KGgoAAAANSUhEUgAAAHwAAAAECAYAAABMb1sSAAAAL0lEQVRIDWNgYGD4P4qHfxj8hwKG0cge/pENimMYGI3wEVLCjUb4CIloWAkOi3AABs4GF2ClBkgAAAAASUVORK5CYII=;" vertex="1" parent="1">
          <mxGeometry x="175" y="307" width="103" height="3.32" as="geometry" />
        </mxCell>
        <mxCell id="_qaNBhC_KMGZr9s5L9kp-33" value="&lt;font style=&quot;font-size: 24px&quot;&gt;&lt;b&gt;CS&lt;/b&gt;&lt;/font&gt;" style="text;html=1;strokeColor=none;fillColor=none;align=center;verticalAlign=middle;whiteSpace=wrap;rounded=0;" vertex="1" parent="1">
          <mxGeometry x="206.5" y="275" width="40" height="20" as="geometry" />
        </mxCell>
        <mxCell id="_qaNBhC_KMGZr9s5L9kp-34" value="&lt;font style=&quot;font-size: 24px&quot;&gt;&lt;b&gt;level&lt;/b&gt;&lt;/font&gt;" style="text;html=1;strokeColor=none;fillColor=none;align=center;verticalAlign=middle;whiteSpace=wrap;rounded=0;" vertex="1" parent="1">
          <mxGeometry x="54" width="70" height="37" as="geometry" />
        </mxCell>
        <mxCell id="_qaNBhC_KMGZr9s5L9kp-35" value="&lt;font style=&quot;font-size: 24px&quot;&gt;&lt;b&gt;1&lt;/b&gt;&lt;/font&gt;" style="text;html=1;strokeColor=none;fillColor=none;align=center;verticalAlign=middle;whiteSpace=wrap;rounded=0;" vertex="1" parent="1">
          <mxGeometry x="69" y="113" width="40" height="20" as="geometry" />
        </mxCell>
        <mxCell id="_qaNBhC_KMGZr9s5L9kp-36" value="&lt;font style=&quot;font-size: 24px&quot;&gt;&lt;b&gt;2&lt;/b&gt;&lt;/font&gt;" style="text;html=1;strokeColor=none;fillColor=none;align=center;verticalAlign=middle;whiteSpace=wrap;rounded=0;" vertex="1" parent="1">
          <mxGeometry x="69" y="194" width="40" height="20" as="geometry" />
        </mxCell>
        <mxCell id="_qaNBhC_KMGZr9s5L9kp-37" value="&lt;font style=&quot;font-size: 24px&quot;&gt;&lt;b&gt;3&lt;/b&gt;&lt;/font&gt;" style="text;html=1;strokeColor=none;fillColor=none;align=center;verticalAlign=middle;whiteSpace=wrap;rounded=0;" vertex="1" parent="1">
          <mxGeometry x="69" y="278" width="40" height="20" as="geometry" />
        </mxCell>
        <mxCell id="_qaNBhC_KMGZr9s5L9kp-38" value="&lt;b style=&quot;font-size: 24px&quot;&gt;0&lt;/b&gt;" style="text;html=1;strokeColor=none;fillColor=none;align=center;verticalAlign=middle;whiteSpace=wrap;rounded=0;" vertex="1" parent="1">
          <mxGeometry x="69" y="46" width="40" height="20" as="geometry" />
        </mxCell>
        <mxCell id="_qaNBhC_KMGZr9s5L9kp-39" value="&lt;font style=&quot;font-size: 24px&quot; color=&quot;#ff99ff&quot;&gt;T0&lt;/font&gt;" style="text;html=1;strokeColor=none;fillColor=none;align=center;verticalAlign=middle;whiteSpace=wrap;rounded=0;" vertex="1" parent="1">
          <mxGeometry x="155" y="40" width="40" height="20" as="geometry" />
        </mxCell>
        <mxCell id="_qaNBhC_KMGZr9s5L9kp-40" value="&lt;font style=&quot;font-size: 24px&quot; color=&quot;#3333ff&quot;&gt;T1&lt;/font&gt;" style="text;html=1;strokeColor=none;fillColor=none;align=center;verticalAlign=middle;whiteSpace=wrap;rounded=0;" vertex="1" parent="1">
          <mxGeometry x="191" y="40" width="40" height="20" as="geometry" />
        </mxCell>
        <mxCell id="_qaNBhC_KMGZr9s5L9kp-41" value="&lt;font style=&quot;font-size: 24px&quot; color=&quot;#ff3333&quot;&gt;T2&lt;/font&gt;" style="text;html=1;strokeColor=none;fillColor=none;align=center;verticalAlign=middle;whiteSpace=wrap;rounded=0;" vertex="1" parent="1">
          <mxGeometry x="226" y="40" width="40" height="20" as="geometry" />
        </mxCell>
        <mxCell id="_qaNBhC_KMGZr9s5L9kp-42" value="&lt;font style=&quot;font-size: 24px&quot; color=&quot;#003333&quot;&gt;T3&lt;/font&gt;" style="text;html=1;strokeColor=none;fillColor=none;align=center;verticalAlign=middle;whiteSpace=wrap;rounded=0;" vertex="1" parent="1">
          <mxGeometry x="266" y="40" width="40" height="20" as="geometry" />
        </mxCell>
        <mxCell id="_qaNBhC_KMGZr9s5L9kp-43" value="" style="shape=image;verticalLabelPosition=bottom;labelBackgroundColor=#ffffff;verticalAlign=top;aspect=fixed;imageAspect=0;image=data:image/png,iVBORw0KGgoAAAANSUhEUgAAAKYAAAAFCAYAAADPAJc3AAAAgUlEQVRIDe3XQQkAIRAF0IlgBKN4NIJHmxjDGEYwikdj/GWEgd0E/oURPl5Fn/IVACilIKVEm5wzWmvU6b1jzkmdvbce9y+G6CpjjBARj+/BdQNrrXNxHKZjvI7x/Sg6TAdJBdJwfmCyd6MxBnW/1P5ba6Xt6PZ/CCFQYjSUOhvMBzu4TiBN3omEAAAAAElFTkSuQmCC;" vertex="1" parent="1">
          <mxGeometry x="589" y="87.86000000000001" width="166" height="5" as="geometry" />
        </mxCell>
        <mxCell id="_qaNBhC_KMGZr9s5L9kp-44" value="" style="shape=image;verticalLabelPosition=bottom;labelBackgroundColor=#ffffff;verticalAlign=top;aspect=fixed;imageAspect=0;image=data:image/png,iVBORw0KGgoAAAANSUhEUgAAAJQAAAAECAYAAABoWhaXAAAAOUlEQVRIDWNgYGD4P4pHw4DSNPAfChgoNWhU/2hiBKUBGBhNUKMlNFVqqNEENZqQqJKQYDUULEEBAKsEZbe6GvysAAAAAElFTkSuQmCC;" vertex="1" parent="1">
          <mxGeometry x="603" y="168.86" width="143" height="3.86" as="geometry" />
        </mxCell>
        <mxCell id="_qaNBhC_KMGZr9s5L9kp-45" value="" style="shape=image;verticalLabelPosition=bottom;labelBackgroundColor=#ffffff;verticalAlign=top;aspect=fixed;imageAspect=0;image=data:image/png,iVBORw0KGgoAAAANSUhEUgAAAHwAAAAECAYAAABMb1sSAAAAL0lEQVRIDWNgYGD4P4qHfxj8hwKG0cge/pENimMYGI3wEVLCjUb4CIloWAkOi3AABs4GF2ClBkgAAAAASUVORK5CYII=;" vertex="1" parent="1">
          <mxGeometry x="610" y="243.86" width="124" height="4" as="geometry" />
        </mxCell>
        <mxCell id="_qaNBhC_KMGZr9s5L9kp-46" value="" style="endArrow=none;html=1;exitX=0.024;exitY=0.6;exitDx=0;exitDy=0;exitPerimeter=0;strokeWidth=2;" edge="1" parent="1" source="_qaNBhC_KMGZr9s5L9kp-43">
          <mxGeometry width="50" height="50" relative="1" as="geometry">
            <mxPoint x="588" y="90.86000000000001" as="sourcePoint" />
            <mxPoint x="619" y="316.86" as="targetPoint" />
          </mxGeometry>
        </mxCell>
        <mxCell id="_qaNBhC_KMGZr9s5L9kp-47" value="" style="endArrow=none;html=1;exitX=1;exitY=0.25;exitDx=0;exitDy=0;strokeWidth=2;" edge="1" parent="1" source="_qaNBhC_KMGZr9s5L9kp-43">
          <mxGeometry width="50" height="50" relative="1" as="geometry">
            <mxPoint x="791" y="97.86000000000001" as="sourcePoint" />
            <mxPoint x="722" y="320.86" as="targetPoint" />
          </mxGeometry>
        </mxCell>
        <mxCell id="_qaNBhC_KMGZr9s5L9kp-48" value="" style="shape=image;verticalLabelPosition=bottom;labelBackgroundColor=#ffffff;verticalAlign=top;aspect=fixed;imageAspect=0;image=data:image/png,iVBORw0KGgoAAAANSUhEUgAAAHwAAAAECAYAAABMb1sSAAAAL0lEQVRIDWNgYGD4P4qHfxj8hwKG0cge/pENimMYGI3wEVLCjUb4CIloWAkOi3AABs4GF2ClBkgAAAAASUVORK5CYII=;" vertex="1" parent="1">
          <mxGeometry x="619" y="315.86" width="103" height="3.32" as="geometry" />
        </mxCell>
        <mxCell id="_qaNBhC_KMGZr9s5L9kp-49" value="&lt;font style=&quot;font-size: 24px&quot;&gt;&lt;b&gt;CS&lt;/b&gt;&lt;/font&gt;" style="text;html=1;strokeColor=none;fillColor=none;align=center;verticalAlign=middle;whiteSpace=wrap;rounded=0;" vertex="1" parent="1">
          <mxGeometry x="650.5" y="283.86" width="40" height="20" as="geometry" />
        </mxCell>
        <mxCell id="_qaNBhC_KMGZr9s5L9kp-50" value="&lt;font style=&quot;font-size: 24px&quot;&gt;&lt;b&gt;level&lt;/b&gt;&lt;/font&gt;" style="text;html=1;strokeColor=none;fillColor=none;align=center;verticalAlign=middle;whiteSpace=wrap;rounded=0;" vertex="1" parent="1">
          <mxGeometry x="498" y="8.86" width="70" height="37" as="geometry" />
        </mxCell>
        <mxCell id="_qaNBhC_KMGZr9s5L9kp-51" value="&lt;font style=&quot;font-size: 24px&quot;&gt;&lt;b&gt;1&lt;/b&gt;&lt;/font&gt;" style="text;html=1;strokeColor=none;fillColor=none;align=center;verticalAlign=middle;whiteSpace=wrap;rounded=0;" vertex="1" parent="1">
          <mxGeometry x="513" y="121.86000000000001" width="40" height="20" as="geometry" />
        </mxCell>
        <mxCell id="_qaNBhC_KMGZr9s5L9kp-52" value="&lt;font style=&quot;font-size: 24px&quot;&gt;&lt;b&gt;2&lt;/b&gt;&lt;/font&gt;" style="text;html=1;strokeColor=none;fillColor=none;align=center;verticalAlign=middle;whiteSpace=wrap;rounded=0;" vertex="1" parent="1">
          <mxGeometry x="513" y="202.86" width="40" height="20" as="geometry" />
        </mxCell>
        <mxCell id="_qaNBhC_KMGZr9s5L9kp-53" value="&lt;font style=&quot;font-size: 24px&quot;&gt;&lt;b&gt;3&lt;/b&gt;&lt;/font&gt;" style="text;html=1;strokeColor=none;fillColor=none;align=center;verticalAlign=middle;whiteSpace=wrap;rounded=0;" vertex="1" parent="1">
          <mxGeometry x="513" y="286.86" width="40" height="20" as="geometry" />
        </mxCell>
        <mxCell id="_qaNBhC_KMGZr9s5L9kp-54" value="&lt;font style=&quot;font-size: 24px&quot;&gt;&lt;b&gt;0&lt;/b&gt;&lt;/font&gt;" style="text;html=1;strokeColor=none;fillColor=none;align=center;verticalAlign=middle;whiteSpace=wrap;rounded=0;" vertex="1" parent="1">
          <mxGeometry x="513" y="54.86" width="40" height="20" as="geometry" />
        </mxCell>
        <mxCell id="_qaNBhC_KMGZr9s5L9kp-55" value="&lt;font style=&quot;font-size: 24px&quot; color=&quot;#ff99ff&quot;&gt;T0&lt;/font&gt;" style="text;html=1;strokeColor=none;fillColor=none;align=center;verticalAlign=middle;whiteSpace=wrap;rounded=0;" vertex="1" parent="1">
          <mxGeometry x="650" y="121.86000000000001" width="40" height="20" as="geometry" />
        </mxCell>
        <mxCell id="_qaNBhC_KMGZr9s5L9kp-56" value="&lt;font style=&quot;font-size: 24px&quot; color=&quot;#3333ff&quot;&gt;T1&lt;/font&gt;" style="text;html=1;strokeColor=none;fillColor=none;align=center;verticalAlign=middle;whiteSpace=wrap;rounded=0;" vertex="1" parent="1">
          <mxGeometry x="619" y="48.93" width="40" height="20" as="geometry" />
        </mxCell>
        <mxCell id="_qaNBhC_KMGZr9s5L9kp-57" value="&lt;font style=&quot;font-size: 24px&quot; color=&quot;#ff3333&quot;&gt;T2&lt;/font&gt;" style="text;html=1;strokeColor=none;fillColor=none;align=center;verticalAlign=middle;whiteSpace=wrap;rounded=0;" vertex="1" parent="1">
          <mxGeometry x="654" y="48.93" width="40" height="20" as="geometry" />
        </mxCell>
        <mxCell id="_qaNBhC_KMGZr9s5L9kp-58" value="&lt;font style=&quot;font-size: 24px&quot; color=&quot;#003333&quot;&gt;T3&lt;/font&gt;" style="text;html=1;strokeColor=none;fillColor=none;align=center;verticalAlign=middle;whiteSpace=wrap;rounded=0;" vertex="1" parent="1">
          <mxGeometry x="694" y="48.93" width="40" height="20" as="geometry" />
        </mxCell>
        <mxCell id="_qaNBhC_KMGZr9s5L9kp-75" value="&lt;span style=&quot;font-size: 24px&quot;&gt;&lt;b&gt;victim&lt;/b&gt;&lt;/span&gt;" style="text;html=1;strokeColor=none;fillColor=none;align=center;verticalAlign=middle;whiteSpace=wrap;rounded=0;" vertex="1" parent="1">
          <mxGeometry x="331" y="3" width="70" height="37" as="geometry" />
        </mxCell>
        <mxCell id="_qaNBhC_KMGZr9s5L9kp-77" value="&lt;b style=&quot;font-size: 24px&quot;&gt;x&lt;/b&gt;" style="text;html=1;strokeColor=none;fillColor=none;align=center;verticalAlign=middle;whiteSpace=wrap;rounded=0;" vertex="1" parent="1">
          <mxGeometry x="346" y="46" width="40" height="20" as="geometry" />
        </mxCell>
        <mxCell id="_qaNBhC_KMGZr9s5L9kp-78" value="&lt;b style=&quot;font-size: 24px&quot;&gt;x&lt;/b&gt;" style="text;html=1;strokeColor=none;fillColor=none;align=center;verticalAlign=middle;whiteSpace=wrap;rounded=0;" vertex="1" parent="1">
          <mxGeometry x="346" y="113" width="40" height="20" as="geometry" />
        </mxCell>
        <mxCell id="_qaNBhC_KMGZr9s5L9kp-79" value="&lt;b style=&quot;font-size: 24px&quot;&gt;x&lt;/b&gt;" style="text;html=1;strokeColor=none;fillColor=none;align=center;verticalAlign=middle;whiteSpace=wrap;rounded=0;" vertex="1" parent="1">
          <mxGeometry x="346" y="194" width="40" height="20" as="geometry" />
        </mxCell>
        <mxCell id="_qaNBhC_KMGZr9s5L9kp-80" value="&lt;b style=&quot;font-size: 24px&quot;&gt;x&lt;/b&gt;" style="text;html=1;strokeColor=none;fillColor=none;align=center;verticalAlign=middle;whiteSpace=wrap;rounded=0;" vertex="1" parent="1">
          <mxGeometry x="344" y="278" width="40" height="20" as="geometry" />
        </mxCell>
        <mxCell id="_qaNBhC_KMGZr9s5L9kp-81" value="&lt;span style=&quot;font-size: 24px&quot;&gt;&lt;b&gt;victim&lt;/b&gt;&lt;/span&gt;" style="text;html=1;strokeColor=none;fillColor=none;align=center;verticalAlign=middle;whiteSpace=wrap;rounded=0;" vertex="1" parent="1">
          <mxGeometry x="769" y="5.93" width="70" height="37" as="geometry" />
        </mxCell>
        <mxCell id="_qaNBhC_KMGZr9s5L9kp-82" value="&lt;b style=&quot;font-size: 24px&quot;&gt;0&lt;/b&gt;" style="text;html=1;strokeColor=none;fillColor=none;align=center;verticalAlign=middle;whiteSpace=wrap;rounded=0;" vertex="1" parent="1">
          <mxGeometry x="786" y="48.93" width="40" height="20" as="geometry" />
        </mxCell>
        <mxCell id="_qaNBhC_KMGZr9s5L9kp-83" value="&lt;b style=&quot;font-size: 24px&quot;&gt;0&lt;/b&gt;" style="text;html=1;strokeColor=none;fillColor=none;align=center;verticalAlign=middle;whiteSpace=wrap;rounded=0;" vertex="1" parent="1">
          <mxGeometry x="786" y="115.93" width="40" height="20" as="geometry" />
        </mxCell>
        <mxCell id="_qaNBhC_KMGZr9s5L9kp-84" value="&lt;b style=&quot;font-size: 24px&quot;&gt;x&lt;/b&gt;" style="text;html=1;strokeColor=none;fillColor=none;align=center;verticalAlign=middle;whiteSpace=wrap;rounded=0;" vertex="1" parent="1">
          <mxGeometry x="786" y="196.93" width="40" height="20" as="geometry" />
        </mxCell>
        <mxCell id="_qaNBhC_KMGZr9s5L9kp-85" value="&lt;b style=&quot;font-size: 24px&quot;&gt;x&lt;/b&gt;" style="text;html=1;strokeColor=none;fillColor=none;align=center;verticalAlign=middle;whiteSpace=wrap;rounded=0;" vertex="1" parent="1">
          <mxGeometry x="784" y="280.93" width="40" height="20" as="geometry" />
        </mxCell>
        <mxCell id="_qaNBhC_KMGZr9s5L9kp-86" value="" style="shape=image;verticalLabelPosition=bottom;labelBackgroundColor=#ffffff;verticalAlign=top;aspect=fixed;imageAspect=0;image=data:image/png,iVBORw0KGgoAAAANSUhEUgAAAKYAAAAFCAYAAADPAJc3AAAAgUlEQVRIDe3XQQkAIRAF0IlgBKN4NIJHmxjDGEYwikdj/GWEgd0E/oURPl5Fn/IVACilIKVEm5wzWmvU6b1jzkmdvbce9y+G6CpjjBARj+/BdQNrrXNxHKZjvI7x/Sg6TAdJBdJwfmCyd6MxBnW/1P5ba6Xt6PZ/CCFQYjSUOhvMBzu4TiBN3omEAAAAAElFTkSuQmCC;" vertex="1" parent="1">
          <mxGeometry x="1036" y="95.26000000000008" width="166" height="5" as="geometry" />
        </mxCell>
        <mxCell id="_qaNBhC_KMGZr9s5L9kp-87" value="" style="shape=image;verticalLabelPosition=bottom;labelBackgroundColor=#ffffff;verticalAlign=top;aspect=fixed;imageAspect=0;image=data:image/png,iVBORw0KGgoAAAANSUhEUgAAAJQAAAAECAYAAABoWhaXAAAAOUlEQVRIDWNgYGD4P4pHw4DSNPAfChgoNWhU/2hiBKUBGBhNUKMlNFVqqNEENZqQqJKQYDUULEEBAKsEZbe6GvysAAAAAElFTkSuQmCC;" vertex="1" parent="1">
          <mxGeometry x="1050" y="176.26000000000008" width="143" height="3.86" as="geometry" />
        </mxCell>
        <mxCell id="_qaNBhC_KMGZr9s5L9kp-88" value="" style="shape=image;verticalLabelPosition=bottom;labelBackgroundColor=#ffffff;verticalAlign=top;aspect=fixed;imageAspect=0;image=data:image/png,iVBORw0KGgoAAAANSUhEUgAAAHwAAAAECAYAAABMb1sSAAAAL0lEQVRIDWNgYGD4P4qHfxj8hwKG0cge/pENimMYGI3wEVLCjUb4CIloWAkOi3AABs4GF2ClBkgAAAAASUVORK5CYII=;" vertex="1" parent="1">
          <mxGeometry x="1057" y="251.26000000000008" width="124" height="4" as="geometry" />
        </mxCell>
        <mxCell id="_qaNBhC_KMGZr9s5L9kp-89" value="" style="endArrow=none;html=1;exitX=0.024;exitY=0.6;exitDx=0;exitDy=0;exitPerimeter=0;strokeWidth=2;" edge="1" parent="1" source="_qaNBhC_KMGZr9s5L9kp-86">
          <mxGeometry width="50" height="50" relative="1" as="geometry">
            <mxPoint x="1035" y="98.26000000000008" as="sourcePoint" />
            <mxPoint x="1066" y="324.26000000000005" as="targetPoint" />
          </mxGeometry>
        </mxCell>
        <mxCell id="_qaNBhC_KMGZr9s5L9kp-90" value="" style="endArrow=none;html=1;exitX=1;exitY=0.25;exitDx=0;exitDy=0;strokeWidth=2;" edge="1" parent="1" source="_qaNBhC_KMGZr9s5L9kp-86">
          <mxGeometry width="50" height="50" relative="1" as="geometry">
            <mxPoint x="1238" y="105.26000000000008" as="sourcePoint" />
            <mxPoint x="1169" y="328.26000000000005" as="targetPoint" />
          </mxGeometry>
        </mxCell>
        <mxCell id="_qaNBhC_KMGZr9s5L9kp-91" value="" style="shape=image;verticalLabelPosition=bottom;labelBackgroundColor=#ffffff;verticalAlign=top;aspect=fixed;imageAspect=0;image=data:image/png,iVBORw0KGgoAAAANSUhEUgAAAHwAAAAECAYAAABMb1sSAAAAL0lEQVRIDWNgYGD4P4qHfxj8hwKG0cge/pENimMYGI3wEVLCjUb4CIloWAkOi3AABs4GF2ClBkgAAAAASUVORK5CYII=;" vertex="1" parent="1">
          <mxGeometry x="1066" y="323.26000000000005" width="103" height="3.32" as="geometry" />
        </mxCell>
        <mxCell id="_qaNBhC_KMGZr9s5L9kp-92" value="&lt;font style=&quot;font-size: 24px&quot;&gt;&lt;b&gt;CS&lt;/b&gt;&lt;/font&gt;" style="text;html=1;strokeColor=none;fillColor=none;align=center;verticalAlign=middle;whiteSpace=wrap;rounded=0;" vertex="1" parent="1">
          <mxGeometry x="1097.5" y="291.26000000000005" width="40" height="20" as="geometry" />
        </mxCell>
        <mxCell id="_qaNBhC_KMGZr9s5L9kp-93" value="&lt;font style=&quot;font-size: 24px&quot;&gt;&lt;b&gt;level&lt;/b&gt;&lt;/font&gt;" style="text;html=1;strokeColor=none;fillColor=none;align=center;verticalAlign=middle;whiteSpace=wrap;rounded=0;" vertex="1" parent="1">
          <mxGeometry x="945" y="16.260000000000012" width="70" height="37" as="geometry" />
        </mxCell>
        <mxCell id="_qaNBhC_KMGZr9s5L9kp-94" value="&lt;font style=&quot;font-size: 24px&quot;&gt;&lt;b&gt;1&lt;/b&gt;&lt;/font&gt;" style="text;html=1;strokeColor=none;fillColor=none;align=center;verticalAlign=middle;whiteSpace=wrap;rounded=0;" vertex="1" parent="1">
          <mxGeometry x="960" y="129.26000000000008" width="40" height="20" as="geometry" />
        </mxCell>
        <mxCell id="_qaNBhC_KMGZr9s5L9kp-95" value="&lt;font style=&quot;font-size: 24px&quot;&gt;&lt;b&gt;2&lt;/b&gt;&lt;/font&gt;" style="text;html=1;strokeColor=none;fillColor=none;align=center;verticalAlign=middle;whiteSpace=wrap;rounded=0;" vertex="1" parent="1">
          <mxGeometry x="960" y="210.26000000000008" width="40" height="20" as="geometry" />
        </mxCell>
        <mxCell id="_qaNBhC_KMGZr9s5L9kp-96" value="&lt;font style=&quot;font-size: 24px&quot;&gt;&lt;b&gt;3&lt;/b&gt;&lt;/font&gt;" style="text;html=1;strokeColor=none;fillColor=none;align=center;verticalAlign=middle;whiteSpace=wrap;rounded=0;" vertex="1" parent="1">
          <mxGeometry x="960" y="294.26000000000005" width="40" height="20" as="geometry" />
        </mxCell>
        <mxCell id="_qaNBhC_KMGZr9s5L9kp-97" value="&lt;font style=&quot;font-size: 24px&quot;&gt;&lt;b&gt;0&lt;/b&gt;&lt;/font&gt;" style="text;html=1;strokeColor=none;fillColor=none;align=center;verticalAlign=middle;whiteSpace=wrap;rounded=0;" vertex="1" parent="1">
          <mxGeometry x="960" y="62.259999999999955" width="40" height="20" as="geometry" />
        </mxCell>
        <mxCell id="_qaNBhC_KMGZr9s5L9kp-98" value="&lt;font style=&quot;font-size: 24px&quot; color=&quot;#ff99ff&quot;&gt;T0&lt;/font&gt;" style="text;html=1;strokeColor=none;fillColor=none;align=center;verticalAlign=middle;whiteSpace=wrap;rounded=0;" vertex="1" parent="1">
          <mxGeometry x="1064" y="129.26000000000008" width="40" height="20" as="geometry" />
        </mxCell>
        <mxCell id="_qaNBhC_KMGZr9s5L9kp-99" value="&lt;font style=&quot;font-size: 24px&quot; color=&quot;#3333ff&quot;&gt;T1&lt;/font&gt;" style="text;html=1;strokeColor=none;fillColor=none;align=center;verticalAlign=middle;whiteSpace=wrap;rounded=0;" vertex="1" parent="1">
          <mxGeometry x="1099" y="56.329999999999956" width="40" height="20" as="geometry" />
        </mxCell>
        <mxCell id="_qaNBhC_KMGZr9s5L9kp-100" value="&lt;font style=&quot;font-size: 24px&quot; color=&quot;#ff3333&quot;&gt;T2&lt;/font&gt;" style="text;html=1;strokeColor=none;fillColor=none;align=center;verticalAlign=middle;whiteSpace=wrap;rounded=0;" vertex="1" parent="1">
          <mxGeometry x="1104" y="129.25999999999996" width="40" height="20" as="geometry" />
        </mxCell>
        <mxCell id="_qaNBhC_KMGZr9s5L9kp-101" value="&lt;font style=&quot;font-size: 24px&quot; color=&quot;#003333&quot;&gt;T3&lt;/font&gt;" style="text;html=1;strokeColor=none;fillColor=none;align=center;verticalAlign=middle;whiteSpace=wrap;rounded=0;" vertex="1" parent="1">
          <mxGeometry x="1146" y="129.25999999999996" width="40" height="20" as="geometry" />
        </mxCell>
        <mxCell id="_qaNBhC_KMGZr9s5L9kp-102" value="&lt;span style=&quot;font-size: 24px&quot;&gt;&lt;b&gt;victim&lt;/b&gt;&lt;/span&gt;" style="text;html=1;strokeColor=none;fillColor=none;align=center;verticalAlign=middle;whiteSpace=wrap;rounded=0;" vertex="1" parent="1">
          <mxGeometry x="1216" y="13.330000000000007" width="70" height="37" as="geometry" />
        </mxCell>
        <mxCell id="_qaNBhC_KMGZr9s5L9kp-103" value="&lt;b style=&quot;font-size: 24px&quot;&gt;1&lt;/b&gt;" style="text;html=1;strokeColor=none;fillColor=none;align=center;verticalAlign=middle;whiteSpace=wrap;rounded=0;" vertex="1" parent="1">
          <mxGeometry x="1233" y="56.330000000000005" width="40" height="20" as="geometry" />
        </mxCell>
        <mxCell id="_qaNBhC_KMGZr9s5L9kp-104" value="&lt;b style=&quot;font-size: 24px&quot;&gt;2&lt;/b&gt;" style="text;html=1;strokeColor=none;fillColor=none;align=center;verticalAlign=middle;whiteSpace=wrap;rounded=0;" vertex="1" parent="1">
          <mxGeometry x="1233" y="123.33000000000001" width="40" height="20" as="geometry" />
        </mxCell>
        <mxCell id="_qaNBhC_KMGZr9s5L9kp-105" value="&lt;b style=&quot;font-size: 24px&quot;&gt;x&lt;/b&gt;" style="text;html=1;strokeColor=none;fillColor=none;align=center;verticalAlign=middle;whiteSpace=wrap;rounded=0;" vertex="1" parent="1">
          <mxGeometry x="1233" y="204.33" width="40" height="20" as="geometry" />
        </mxCell>
        <mxCell id="_qaNBhC_KMGZr9s5L9kp-106" value="&lt;b style=&quot;font-size: 24px&quot;&gt;x&lt;/b&gt;" style="text;html=1;strokeColor=none;fillColor=none;align=center;verticalAlign=middle;whiteSpace=wrap;rounded=0;" vertex="1" parent="1">
          <mxGeometry x="1231" y="288.33" width="40" height="20" as="geometry" />
        </mxCell>
        <mxCell id="_qaNBhC_KMGZr9s5L9kp-107" value="" style="shape=image;verticalLabelPosition=bottom;labelBackgroundColor=#ffffff;verticalAlign=top;aspect=fixed;imageAspect=0;image=data:image/png,iVBORw0KGgoAAAANSUhEUgAAAKYAAAAFCAYAAADPAJc3AAAAgUlEQVRIDe3XQQkAIRAF0IlgBKN4NIJHmxjDGEYwikdj/GWEgd0E/oURPl5Fn/IVACilIKVEm5wzWmvU6b1jzkmdvbce9y+G6CpjjBARj+/BdQNrrXNxHKZjvI7x/Sg6TAdJBdJwfmCyd6MxBnW/1P5ba6Xt6PZ/CCFQYjSUOhvMBzu4TiBN3omEAAAAAElFTkSuQmCC;" vertex="1" parent="1">
          <mxGeometry x="149.5" y="502.61000000000007" width="166" height="5" as="geometry" />
        </mxCell>
        <mxCell id="_qaNBhC_KMGZr9s5L9kp-108" value="" style="shape=image;verticalLabelPosition=bottom;labelBackgroundColor=#ffffff;verticalAlign=top;aspect=fixed;imageAspect=0;image=data:image/png,iVBORw0KGgoAAAANSUhEUgAAAJQAAAAECAYAAABoWhaXAAAAOUlEQVRIDWNgYGD4P4pHw4DSNPAfChgoNWhU/2hiBKUBGBhNUKMlNFVqqNEENZqQqJKQYDUULEEBAKsEZbe6GvysAAAAAElFTkSuQmCC;" vertex="1" parent="1">
          <mxGeometry x="163.5" y="583.61" width="143" height="3.86" as="geometry" />
        </mxCell>
        <mxCell id="_qaNBhC_KMGZr9s5L9kp-109" value="" style="shape=image;verticalLabelPosition=bottom;labelBackgroundColor=#ffffff;verticalAlign=top;aspect=fixed;imageAspect=0;image=data:image/png,iVBORw0KGgoAAAANSUhEUgAAAHwAAAAECAYAAABMb1sSAAAAL0lEQVRIDWNgYGD4P4qHfxj8hwKG0cge/pENimMYGI3wEVLCjUb4CIloWAkOi3AABs4GF2ClBkgAAAAASUVORK5CYII=;" vertex="1" parent="1">
          <mxGeometry x="170.5" y="658.61" width="124" height="4" as="geometry" />
        </mxCell>
        <mxCell id="_qaNBhC_KMGZr9s5L9kp-110" value="" style="endArrow=none;html=1;exitX=0.024;exitY=0.6;exitDx=0;exitDy=0;exitPerimeter=0;strokeWidth=2;" edge="1" parent="1" source="_qaNBhC_KMGZr9s5L9kp-107">
          <mxGeometry width="50" height="50" relative="1" as="geometry">
            <mxPoint x="148.5" y="505.61000000000007" as="sourcePoint" />
            <mxPoint x="179.5" y="731.61" as="targetPoint" />
          </mxGeometry>
        </mxCell>
        <mxCell id="_qaNBhC_KMGZr9s5L9kp-111" value="" style="endArrow=none;html=1;exitX=1;exitY=0.25;exitDx=0;exitDy=0;strokeWidth=2;" edge="1" parent="1" source="_qaNBhC_KMGZr9s5L9kp-107">
          <mxGeometry width="50" height="50" relative="1" as="geometry">
            <mxPoint x="351.5" y="512.61" as="sourcePoint" />
            <mxPoint x="282.5" y="735.61" as="targetPoint" />
          </mxGeometry>
        </mxCell>
        <mxCell id="_qaNBhC_KMGZr9s5L9kp-112" value="" style="shape=image;verticalLabelPosition=bottom;labelBackgroundColor=#ffffff;verticalAlign=top;aspect=fixed;imageAspect=0;image=data:image/png,iVBORw0KGgoAAAANSUhEUgAAAHwAAAAECAYAAABMb1sSAAAAL0lEQVRIDWNgYGD4P4qHfxj8hwKG0cge/pENimMYGI3wEVLCjUb4CIloWAkOi3AABs4GF2ClBkgAAAAASUVORK5CYII=;" vertex="1" parent="1">
          <mxGeometry x="179.5" y="730.61" width="103" height="3.32" as="geometry" />
        </mxCell>
        <mxCell id="_qaNBhC_KMGZr9s5L9kp-113" value="&lt;font style=&quot;font-size: 24px&quot;&gt;&lt;b&gt;CS&lt;/b&gt;&lt;/font&gt;" style="text;html=1;strokeColor=none;fillColor=none;align=center;verticalAlign=middle;whiteSpace=wrap;rounded=0;" vertex="1" parent="1">
          <mxGeometry x="211" y="698.61" width="40" height="20" as="geometry" />
        </mxCell>
        <mxCell id="_qaNBhC_KMGZr9s5L9kp-114" value="&lt;font style=&quot;font-size: 24px&quot;&gt;&lt;b&gt;level&lt;/b&gt;&lt;/font&gt;" style="text;html=1;strokeColor=none;fillColor=none;align=center;verticalAlign=middle;whiteSpace=wrap;rounded=0;" vertex="1" parent="1">
          <mxGeometry x="58.5" y="423.61" width="70" height="37" as="geometry" />
        </mxCell>
        <mxCell id="_qaNBhC_KMGZr9s5L9kp-115" value="&lt;font style=&quot;font-size: 24px&quot;&gt;&lt;b&gt;1&lt;/b&gt;&lt;/font&gt;" style="text;html=1;strokeColor=none;fillColor=none;align=center;verticalAlign=middle;whiteSpace=wrap;rounded=0;" vertex="1" parent="1">
          <mxGeometry x="73.5" y="536.61" width="40" height="20" as="geometry" />
        </mxCell>
        <mxCell id="_qaNBhC_KMGZr9s5L9kp-116" value="&lt;font style=&quot;font-size: 24px&quot;&gt;&lt;b&gt;2&lt;/b&gt;&lt;/font&gt;" style="text;html=1;strokeColor=none;fillColor=none;align=center;verticalAlign=middle;whiteSpace=wrap;rounded=0;" vertex="1" parent="1">
          <mxGeometry x="73.5" y="617.61" width="40" height="20" as="geometry" />
        </mxCell>
        <mxCell id="_qaNBhC_KMGZr9s5L9kp-117" value="&lt;font style=&quot;font-size: 24px&quot;&gt;&lt;b&gt;3&lt;/b&gt;&lt;/font&gt;" style="text;html=1;strokeColor=none;fillColor=none;align=center;verticalAlign=middle;whiteSpace=wrap;rounded=0;" vertex="1" parent="1">
          <mxGeometry x="73.5" y="701.61" width="40" height="20" as="geometry" />
        </mxCell>
        <mxCell id="_qaNBhC_KMGZr9s5L9kp-118" value="&lt;font style=&quot;font-size: 24px&quot;&gt;&lt;b&gt;0&lt;/b&gt;&lt;/font&gt;" style="text;html=1;strokeColor=none;fillColor=none;align=center;verticalAlign=middle;whiteSpace=wrap;rounded=0;" vertex="1" parent="1">
          <mxGeometry x="73.5" y="469.60999999999996" width="40" height="20" as="geometry" />
        </mxCell>
        <mxCell id="_qaNBhC_KMGZr9s5L9kp-119" value="&lt;font style=&quot;font-size: 24px&quot; color=&quot;#ff99ff&quot;&gt;T0&lt;/font&gt;" style="text;html=1;strokeColor=none;fillColor=none;align=center;verticalAlign=middle;whiteSpace=wrap;rounded=0;" vertex="1" parent="1">
          <mxGeometry x="177.5" y="536.61" width="40" height="20" as="geometry" />
        </mxCell>
        <mxCell id="_qaNBhC_KMGZr9s5L9kp-120" value="&lt;font style=&quot;font-size: 24px&quot; color=&quot;#3333ff&quot;&gt;T1&lt;/font&gt;" style="text;html=1;strokeColor=none;fillColor=none;align=center;verticalAlign=middle;whiteSpace=wrap;rounded=0;" vertex="1" parent="1">
          <mxGeometry x="212.5" y="463.67999999999995" width="40" height="20" as="geometry" />
        </mxCell>
        <mxCell id="_qaNBhC_KMGZr9s5L9kp-121" value="&lt;font style=&quot;font-size: 24px&quot; color=&quot;#ff3333&quot;&gt;T2&lt;/font&gt;" style="text;html=1;strokeColor=none;fillColor=none;align=center;verticalAlign=middle;whiteSpace=wrap;rounded=0;" vertex="1" parent="1">
          <mxGeometry x="245" y="536.6099999999999" width="40" height="20" as="geometry" />
        </mxCell>
        <mxCell id="_qaNBhC_KMGZr9s5L9kp-122" value="&lt;font style=&quot;font-size: 24px&quot; color=&quot;#003333&quot;&gt;T3&lt;/font&gt;" style="text;html=1;strokeColor=none;fillColor=none;align=center;verticalAlign=middle;whiteSpace=wrap;rounded=0;" vertex="1" parent="1">
          <mxGeometry x="209" y="611.68" width="40" height="20" as="geometry" />
        </mxCell>
        <mxCell id="_qaNBhC_KMGZr9s5L9kp-123" value="&lt;span style=&quot;font-size: 24px&quot;&gt;&lt;b&gt;victim&lt;/b&gt;&lt;/span&gt;" style="text;html=1;strokeColor=none;fillColor=none;align=center;verticalAlign=middle;whiteSpace=wrap;rounded=0;" vertex="1" parent="1">
          <mxGeometry x="329.5" y="420.68" width="70" height="37" as="geometry" />
        </mxCell>
        <mxCell id="_qaNBhC_KMGZr9s5L9kp-124" value="&lt;b style=&quot;font-size: 24px&quot;&gt;1&lt;/b&gt;" style="text;html=1;strokeColor=none;fillColor=none;align=center;verticalAlign=middle;whiteSpace=wrap;rounded=0;" vertex="1" parent="1">
          <mxGeometry x="346.5" y="463.68" width="40" height="20" as="geometry" />
        </mxCell>
        <mxCell id="_qaNBhC_KMGZr9s5L9kp-125" value="&lt;b style=&quot;font-size: 24px&quot;&gt;2&lt;/b&gt;" style="text;html=1;strokeColor=none;fillColor=none;align=center;verticalAlign=middle;whiteSpace=wrap;rounded=0;" vertex="1" parent="1">
          <mxGeometry x="346.5" y="530.68" width="40" height="20" as="geometry" />
        </mxCell>
        <mxCell id="_qaNBhC_KMGZr9s5L9kp-126" value="&lt;b style=&quot;font-size: 24px&quot;&gt;3&lt;/b&gt;" style="text;html=1;strokeColor=none;fillColor=none;align=center;verticalAlign=middle;whiteSpace=wrap;rounded=0;" vertex="1" parent="1">
          <mxGeometry x="346.5" y="611.68" width="40" height="20" as="geometry" />
        </mxCell>
        <mxCell id="_qaNBhC_KMGZr9s5L9kp-127" value="&lt;b style=&quot;font-size: 24px&quot;&gt;x&lt;/b&gt;" style="text;html=1;strokeColor=none;fillColor=none;align=center;verticalAlign=middle;whiteSpace=wrap;rounded=0;" vertex="1" parent="1">
          <mxGeometry x="344.5" y="695.68" width="40" height="20" as="geometry" />
        </mxCell>
        <mxCell id="_qaNBhC_KMGZr9s5L9kp-128" value="" style="shape=image;verticalLabelPosition=bottom;labelBackgroundColor=#ffffff;verticalAlign=top;aspect=fixed;imageAspect=0;image=data:image/png,iVBORw0KGgoAAAANSUhEUgAAAKYAAAAFCAYAAADPAJc3AAAAgUlEQVRIDe3XQQkAIRAF0IlgBKN4NIJHmxjDGEYwikdj/GWEgd0E/oURPl5Fn/IVACilIKVEm5wzWmvU6b1jzkmdvbce9y+G6CpjjBARj+/BdQNrrXNxHKZjvI7x/Sg6TAdJBdJwfmCyd6MxBnW/1P5ba6Xt6PZ/CCFQYjSUOhvMBzu4TiBN3omEAAAAAElFTkSuQmCC;" vertex="1" parent="1">
          <mxGeometry x="591" y="500.93000000000006" width="166" height="5" as="geometry" />
        </mxCell>
        <mxCell id="_qaNBhC_KMGZr9s5L9kp-129" value="" style="shape=image;verticalLabelPosition=bottom;labelBackgroundColor=#ffffff;verticalAlign=top;aspect=fixed;imageAspect=0;image=data:image/png,iVBORw0KGgoAAAANSUhEUgAAAJQAAAAECAYAAABoWhaXAAAAOUlEQVRIDWNgYGD4P4pHw4DSNPAfChgoNWhU/2hiBKUBGBhNUKMlNFVqqNEENZqQqJKQYDUULEEBAKsEZbe6GvysAAAAAElFTkSuQmCC;" vertex="1" parent="1">
          <mxGeometry x="605" y="581.9300000000002" width="143" height="3.86" as="geometry" />
        </mxCell>
        <mxCell id="_qaNBhC_KMGZr9s5L9kp-130" value="" style="shape=image;verticalLabelPosition=bottom;labelBackgroundColor=#ffffff;verticalAlign=top;aspect=fixed;imageAspect=0;image=data:image/png,iVBORw0KGgoAAAANSUhEUgAAAHwAAAAECAYAAABMb1sSAAAAL0lEQVRIDWNgYGD4P4qHfxj8hwKG0cge/pENimMYGI3wEVLCjUb4CIloWAkOi3AABs4GF2ClBkgAAAAASUVORK5CYII=;" vertex="1" parent="1">
          <mxGeometry x="612" y="656.9300000000001" width="124" height="4" as="geometry" />
        </mxCell>
        <mxCell id="_qaNBhC_KMGZr9s5L9kp-131" value="" style="endArrow=none;html=1;exitX=0.024;exitY=0.6;exitDx=0;exitDy=0;exitPerimeter=0;strokeWidth=2;" edge="1" parent="1" source="_qaNBhC_KMGZr9s5L9kp-128">
          <mxGeometry width="50" height="50" relative="1" as="geometry">
            <mxPoint x="590" y="503.93000000000006" as="sourcePoint" />
            <mxPoint x="621" y="729.9300000000001" as="targetPoint" />
          </mxGeometry>
        </mxCell>
        <mxCell id="_qaNBhC_KMGZr9s5L9kp-132" value="" style="endArrow=none;html=1;exitX=1;exitY=0.25;exitDx=0;exitDy=0;strokeWidth=2;" edge="1" parent="1" source="_qaNBhC_KMGZr9s5L9kp-128">
          <mxGeometry width="50" height="50" relative="1" as="geometry">
            <mxPoint x="793" y="510.9300000000001" as="sourcePoint" />
            <mxPoint x="724" y="733.9300000000001" as="targetPoint" />
          </mxGeometry>
        </mxCell>
        <mxCell id="_qaNBhC_KMGZr9s5L9kp-133" value="" style="shape=image;verticalLabelPosition=bottom;labelBackgroundColor=#ffffff;verticalAlign=top;aspect=fixed;imageAspect=0;image=data:image/png,iVBORw0KGgoAAAANSUhEUgAAAHwAAAAECAYAAABMb1sSAAAAL0lEQVRIDWNgYGD4P4qHfxj8hwKG0cge/pENimMYGI3wEVLCjUb4CIloWAkOi3AABs4GF2ClBkgAAAAASUVORK5CYII=;" vertex="1" parent="1">
          <mxGeometry x="621" y="728.9300000000001" width="103" height="3.32" as="geometry" />
        </mxCell>
        <mxCell id="_qaNBhC_KMGZr9s5L9kp-134" value="&lt;font style=&quot;font-size: 24px&quot;&gt;&lt;b&gt;CS&lt;/b&gt;&lt;/font&gt;" style="text;html=1;strokeColor=none;fillColor=none;align=center;verticalAlign=middle;whiteSpace=wrap;rounded=0;" vertex="1" parent="1">
          <mxGeometry x="652.5" y="696.9300000000001" width="40" height="20" as="geometry" />
        </mxCell>
        <mxCell id="_qaNBhC_KMGZr9s5L9kp-135" value="&lt;font style=&quot;font-size: 24px&quot;&gt;&lt;b&gt;level&lt;/b&gt;&lt;/font&gt;" style="text;html=1;strokeColor=none;fillColor=none;align=center;verticalAlign=middle;whiteSpace=wrap;rounded=0;" vertex="1" parent="1">
          <mxGeometry x="500" y="421.93" width="70" height="37" as="geometry" />
        </mxCell>
        <mxCell id="_qaNBhC_KMGZr9s5L9kp-136" value="&lt;font style=&quot;font-size: 24px&quot;&gt;&lt;b&gt;1&lt;/b&gt;&lt;/font&gt;" style="text;html=1;strokeColor=none;fillColor=none;align=center;verticalAlign=middle;whiteSpace=wrap;rounded=0;" vertex="1" parent="1">
          <mxGeometry x="515" y="534.9300000000002" width="40" height="20" as="geometry" />
        </mxCell>
        <mxCell id="_qaNBhC_KMGZr9s5L9kp-137" value="&lt;font style=&quot;font-size: 24px&quot;&gt;&lt;b&gt;2&lt;/b&gt;&lt;/font&gt;" style="text;html=1;strokeColor=none;fillColor=none;align=center;verticalAlign=middle;whiteSpace=wrap;rounded=0;" vertex="1" parent="1">
          <mxGeometry x="515" y="615.9300000000001" width="40" height="20" as="geometry" />
        </mxCell>
        <mxCell id="_qaNBhC_KMGZr9s5L9kp-138" value="&lt;font style=&quot;font-size: 24px&quot;&gt;&lt;b&gt;3&lt;/b&gt;&lt;/font&gt;" style="text;html=1;strokeColor=none;fillColor=none;align=center;verticalAlign=middle;whiteSpace=wrap;rounded=0;" vertex="1" parent="1">
          <mxGeometry x="515" y="699.9300000000001" width="40" height="20" as="geometry" />
        </mxCell>
        <mxCell id="_qaNBhC_KMGZr9s5L9kp-139" value="&lt;font style=&quot;font-size: 24px&quot;&gt;&lt;b&gt;0&lt;/b&gt;&lt;/font&gt;" style="text;html=1;strokeColor=none;fillColor=none;align=center;verticalAlign=middle;whiteSpace=wrap;rounded=0;" vertex="1" parent="1">
          <mxGeometry x="515" y="467.92999999999995" width="40" height="20" as="geometry" />
        </mxCell>
        <mxCell id="_qaNBhC_KMGZr9s5L9kp-140" value="&lt;font style=&quot;font-size: 24px&quot; color=&quot;#ff99ff&quot;&gt;T0&lt;/font&gt;" style="text;html=1;strokeColor=none;fillColor=none;align=center;verticalAlign=middle;whiteSpace=wrap;rounded=0;" vertex="1" parent="1">
          <mxGeometry x="619" y="534.9300000000002" width="40" height="20" as="geometry" />
        </mxCell>
        <mxCell id="_qaNBhC_KMGZr9s5L9kp-141" value="&lt;font style=&quot;font-size: 24px&quot; color=&quot;#3333ff&quot;&gt;T1&lt;/font&gt;" style="text;html=1;strokeColor=none;fillColor=none;align=center;verticalAlign=middle;whiteSpace=wrap;rounded=0;" vertex="1" parent="1">
          <mxGeometry x="654" y="461.99999999999994" width="40" height="20" as="geometry" />
        </mxCell>
        <mxCell id="_qaNBhC_KMGZr9s5L9kp-142" value="&lt;font style=&quot;font-size: 24px&quot; color=&quot;#ff3333&quot;&gt;T2&lt;/font&gt;" style="text;html=1;strokeColor=none;fillColor=none;align=center;verticalAlign=middle;whiteSpace=wrap;rounded=0;" vertex="1" parent="1">
          <mxGeometry x="686.5" y="534.93" width="40" height="20" as="geometry" />
        </mxCell>
        <mxCell id="_qaNBhC_KMGZr9s5L9kp-143" value="&lt;font style=&quot;font-size: 24px&quot; color=&quot;#003333&quot;&gt;T3&lt;/font&gt;" style="text;html=1;strokeColor=none;fillColor=none;align=center;verticalAlign=middle;whiteSpace=wrap;rounded=0;" vertex="1" parent="1">
          <mxGeometry x="652.5" y="666.07" width="40" height="20" as="geometry" />
        </mxCell>
        <mxCell id="_qaNBhC_KMGZr9s5L9kp-144" value="&lt;span style=&quot;font-size: 24px&quot;&gt;&lt;b&gt;victim&lt;/b&gt;&lt;/span&gt;" style="text;html=1;strokeColor=none;fillColor=none;align=center;verticalAlign=middle;whiteSpace=wrap;rounded=0;" vertex="1" parent="1">
          <mxGeometry x="771" y="419" width="70" height="37" as="geometry" />
        </mxCell>
        <mxCell id="_qaNBhC_KMGZr9s5L9kp-145" value="&lt;b style=&quot;font-size: 24px&quot;&gt;1&lt;/b&gt;" style="text;html=1;strokeColor=none;fillColor=none;align=center;verticalAlign=middle;whiteSpace=wrap;rounded=0;" vertex="1" parent="1">
          <mxGeometry x="788" y="462" width="40" height="20" as="geometry" />
        </mxCell>
        <mxCell id="_qaNBhC_KMGZr9s5L9kp-146" value="&lt;b style=&quot;font-size: 24px&quot;&gt;2&lt;/b&gt;" style="text;html=1;strokeColor=none;fillColor=none;align=center;verticalAlign=middle;whiteSpace=wrap;rounded=0;" vertex="1" parent="1">
          <mxGeometry x="788" y="529.0000000000001" width="40" height="20" as="geometry" />
        </mxCell>
        <mxCell id="_qaNBhC_KMGZr9s5L9kp-147" value="&lt;b style=&quot;font-size: 24px&quot;&gt;3&lt;/b&gt;" style="text;html=1;strokeColor=none;fillColor=none;align=center;verticalAlign=middle;whiteSpace=wrap;rounded=0;" vertex="1" parent="1">
          <mxGeometry x="788" y="610" width="40" height="20" as="geometry" />
        </mxCell>
        <mxCell id="_qaNBhC_KMGZr9s5L9kp-148" value="&lt;b style=&quot;font-size: 24px&quot;&gt;3&lt;/b&gt;" style="text;html=1;strokeColor=none;fillColor=none;align=center;verticalAlign=middle;whiteSpace=wrap;rounded=0;" vertex="1" parent="1">
          <mxGeometry x="786" y="694" width="40" height="20" as="geometry" />
        </mxCell>
        <mxCell id="_qaNBhC_KMGZr9s5L9kp-149" value="" style="shape=image;verticalLabelPosition=bottom;labelBackgroundColor=#ffffff;verticalAlign=top;aspect=fixed;imageAspect=0;image=data:image/png,iVBORw0KGgoAAAANSUhEUgAAAKYAAAAFCAYAAADPAJc3AAAAgUlEQVRIDe3XQQkAIRAF0IlgBKN4NIJHmxjDGEYwikdj/GWEgd0E/oURPl5Fn/IVACilIKVEm5wzWmvU6b1jzkmdvbce9y+G6CpjjBARj+/BdQNrrXNxHKZjvI7x/Sg6TAdJBdJwfmCyd6MxBnW/1P5ba6Xt6PZ/CCFQYjSUOhvMBzu4TiBN3omEAAAAAElFTkSuQmCC;" vertex="1" parent="1">
          <mxGeometry x="1040.5" y="505.54000000000013" width="166" height="5" as="geometry" />
        </mxCell>
        <mxCell id="_qaNBhC_KMGZr9s5L9kp-150" value="" style="shape=image;verticalLabelPosition=bottom;labelBackgroundColor=#ffffff;verticalAlign=top;aspect=fixed;imageAspect=0;image=data:image/png,iVBORw0KGgoAAAANSUhEUgAAAJQAAAAECAYAAABoWhaXAAAAOUlEQVRIDWNgYGD4P4pHw4DSNPAfChgoNWhU/2hiBKUBGBhNUKMlNFVqqNEENZqQqJKQYDUULEEBAKsEZbe6GvysAAAAAElFTkSuQmCC;" vertex="1" parent="1">
          <mxGeometry x="1054.5" y="586.54" width="143" height="3.86" as="geometry" />
        </mxCell>
        <mxCell id="_qaNBhC_KMGZr9s5L9kp-151" value="" style="shape=image;verticalLabelPosition=bottom;labelBackgroundColor=#ffffff;verticalAlign=top;aspect=fixed;imageAspect=0;image=data:image/png,iVBORw0KGgoAAAANSUhEUgAAAHwAAAAECAYAAABMb1sSAAAAL0lEQVRIDWNgYGD4P4qHfxj8hwKG0cge/pENimMYGI3wEVLCjUb4CIloWAkOi3AABs4GF2ClBkgAAAAASUVORK5CYII=;" vertex="1" parent="1">
          <mxGeometry x="1061.5" y="661.5399999999998" width="124" height="4" as="geometry" />
        </mxCell>
        <mxCell id="_qaNBhC_KMGZr9s5L9kp-152" value="" style="endArrow=none;html=1;exitX=0.024;exitY=0.6;exitDx=0;exitDy=0;exitPerimeter=0;strokeWidth=2;" edge="1" parent="1" source="_qaNBhC_KMGZr9s5L9kp-149">
          <mxGeometry width="50" height="50" relative="1" as="geometry">
            <mxPoint x="1039.5" y="508.54000000000013" as="sourcePoint" />
            <mxPoint x="1070.5" y="734.54" as="targetPoint" />
          </mxGeometry>
        </mxCell>
        <mxCell id="_qaNBhC_KMGZr9s5L9kp-153" value="" style="endArrow=none;html=1;exitX=1;exitY=0.25;exitDx=0;exitDy=0;strokeWidth=2;" edge="1" parent="1" source="_qaNBhC_KMGZr9s5L9kp-149">
          <mxGeometry width="50" height="50" relative="1" as="geometry">
            <mxPoint x="1242.5" y="515.5400000000001" as="sourcePoint" />
            <mxPoint x="1173.5" y="738.54" as="targetPoint" />
          </mxGeometry>
        </mxCell>
        <mxCell id="_qaNBhC_KMGZr9s5L9kp-154" value="" style="shape=image;verticalLabelPosition=bottom;labelBackgroundColor=#ffffff;verticalAlign=top;aspect=fixed;imageAspect=0;image=data:image/png,iVBORw0KGgoAAAANSUhEUgAAAHwAAAAECAYAAABMb1sSAAAAL0lEQVRIDWNgYGD4P4qHfxj8hwKG0cge/pENimMYGI3wEVLCjUb4CIloWAkOi3AABs4GF2ClBkgAAAAASUVORK5CYII=;" vertex="1" parent="1">
          <mxGeometry x="1070.5" y="733.5399999999998" width="103" height="3.32" as="geometry" />
        </mxCell>
        <mxCell id="_qaNBhC_KMGZr9s5L9kp-155" value="&lt;font style=&quot;font-size: 24px&quot;&gt;&lt;b&gt;CS&lt;/b&gt;&lt;/font&gt;" style="text;html=1;strokeColor=none;fillColor=none;align=center;verticalAlign=middle;whiteSpace=wrap;rounded=0;" vertex="1" parent="1">
          <mxGeometry x="1102" y="701.5399999999998" width="40" height="20" as="geometry" />
        </mxCell>
        <mxCell id="_qaNBhC_KMGZr9s5L9kp-156" value="&lt;font style=&quot;font-size: 24px&quot;&gt;&lt;b&gt;level&lt;/b&gt;&lt;/font&gt;" style="text;html=1;strokeColor=none;fillColor=none;align=center;verticalAlign=middle;whiteSpace=wrap;rounded=0;" vertex="1" parent="1">
          <mxGeometry x="949.5" y="426.54" width="70" height="37" as="geometry" />
        </mxCell>
        <mxCell id="_qaNBhC_KMGZr9s5L9kp-157" value="&lt;font style=&quot;font-size: 24px&quot;&gt;&lt;b&gt;1&lt;/b&gt;&lt;/font&gt;" style="text;html=1;strokeColor=none;fillColor=none;align=center;verticalAlign=middle;whiteSpace=wrap;rounded=0;" vertex="1" parent="1">
          <mxGeometry x="964.5" y="539.54" width="40" height="20" as="geometry" />
        </mxCell>
        <mxCell id="_qaNBhC_KMGZr9s5L9kp-158" value="&lt;font style=&quot;font-size: 24px&quot;&gt;&lt;b&gt;2&lt;/b&gt;&lt;/font&gt;" style="text;html=1;strokeColor=none;fillColor=none;align=center;verticalAlign=middle;whiteSpace=wrap;rounded=0;" vertex="1" parent="1">
          <mxGeometry x="964.5" y="620.5399999999998" width="40" height="20" as="geometry" />
        </mxCell>
        <mxCell id="_qaNBhC_KMGZr9s5L9kp-159" value="&lt;font style=&quot;font-size: 24px&quot;&gt;&lt;b&gt;3&lt;/b&gt;&lt;/font&gt;" style="text;html=1;strokeColor=none;fillColor=none;align=center;verticalAlign=middle;whiteSpace=wrap;rounded=0;" vertex="1" parent="1">
          <mxGeometry x="964.5" y="704.5399999999998" width="40" height="20" as="geometry" />
        </mxCell>
        <mxCell id="_qaNBhC_KMGZr9s5L9kp-160" value="&lt;font style=&quot;font-size: 24px&quot;&gt;&lt;b&gt;0&lt;/b&gt;&lt;/font&gt;" style="text;html=1;strokeColor=none;fillColor=none;align=center;verticalAlign=middle;whiteSpace=wrap;rounded=0;" vertex="1" parent="1">
          <mxGeometry x="964.5" y="472.53999999999996" width="40" height="20" as="geometry" />
        </mxCell>
        <mxCell id="_qaNBhC_KMGZr9s5L9kp-161" value="&lt;font style=&quot;font-size: 24px&quot; color=&quot;#ff99ff&quot;&gt;T0&lt;/font&gt;" style="text;html=1;strokeColor=none;fillColor=none;align=center;verticalAlign=middle;whiteSpace=wrap;rounded=0;" vertex="1" parent="1">
          <mxGeometry x="1068.5" y="539.54" width="40" height="20" as="geometry" />
        </mxCell>
        <mxCell id="_qaNBhC_KMGZr9s5L9kp-162" value="&lt;font style=&quot;font-size: 24px&quot; color=&quot;#3333ff&quot;&gt;T1&lt;/font&gt;" style="text;html=1;strokeColor=none;fillColor=none;align=center;verticalAlign=middle;whiteSpace=wrap;rounded=0;" vertex="1" parent="1">
          <mxGeometry x="1073.5" y="465.13999999999993" width="40" height="20" as="geometry" />
        </mxCell>
        <mxCell id="_qaNBhC_KMGZr9s5L9kp-163" value="&lt;font style=&quot;font-size: 24px&quot; color=&quot;#ff3333&quot;&gt;T2&lt;/font&gt;" style="text;html=1;strokeColor=none;fillColor=none;align=center;verticalAlign=middle;whiteSpace=wrap;rounded=0;" vertex="1" parent="1">
          <mxGeometry x="1136" y="539.5399999999997" width="40" height="20" as="geometry" />
        </mxCell>
        <mxCell id="_qaNBhC_KMGZr9s5L9kp-164" value="&lt;font style=&quot;font-size: 24px&quot; color=&quot;#003333&quot;&gt;T3&lt;/font&gt;" style="text;html=1;strokeColor=none;fillColor=none;align=center;verticalAlign=middle;whiteSpace=wrap;rounded=0;" vertex="1" parent="1">
          <mxGeometry x="1136" y="465.14" width="40" height="20" as="geometry" />
        </mxCell>
        <mxCell id="_qaNBhC_KMGZr9s5L9kp-165" value="&lt;span style=&quot;font-size: 24px&quot;&gt;&lt;b&gt;victim&lt;/b&gt;&lt;/span&gt;" style="text;html=1;strokeColor=none;fillColor=none;align=center;verticalAlign=middle;whiteSpace=wrap;rounded=0;" vertex="1" parent="1">
          <mxGeometry x="1220.5" y="423.61" width="70" height="37" as="geometry" />
        </mxCell>
        <mxCell id="_qaNBhC_KMGZr9s5L9kp-166" value="&lt;b style=&quot;font-size: 24px&quot;&gt;3&lt;/b&gt;" style="text;html=1;strokeColor=none;fillColor=none;align=center;verticalAlign=middle;whiteSpace=wrap;rounded=0;" vertex="1" parent="1">
          <mxGeometry x="1237.5" y="466.61" width="40" height="20" as="geometry" />
        </mxCell>
        <mxCell id="_qaNBhC_KMGZr9s5L9kp-167" value="&lt;b style=&quot;font-size: 24px&quot;&gt;2&lt;/b&gt;" style="text;html=1;strokeColor=none;fillColor=none;align=center;verticalAlign=middle;whiteSpace=wrap;rounded=0;" vertex="1" parent="1">
          <mxGeometry x="1237.5" y="533.61" width="40" height="20" as="geometry" />
        </mxCell>
        <mxCell id="_qaNBhC_KMGZr9s5L9kp-168" value="&lt;b style=&quot;font-size: 24px&quot;&gt;3&lt;/b&gt;" style="text;html=1;strokeColor=none;fillColor=none;align=center;verticalAlign=middle;whiteSpace=wrap;rounded=0;" vertex="1" parent="1">
          <mxGeometry x="1237.5" y="614.6099999999998" width="40" height="20" as="geometry" />
        </mxCell>
        <mxCell id="_qaNBhC_KMGZr9s5L9kp-169" value="&lt;b style=&quot;font-size: 24px&quot;&gt;3&lt;/b&gt;" style="text;html=1;strokeColor=none;fillColor=none;align=center;verticalAlign=middle;whiteSpace=wrap;rounded=0;" vertex="1" parent="1">
          <mxGeometry x="1235.5" y="698.6099999999998" width="40" height="20" as="geometry" />
        </mxCell>
        <mxCell id="_qaNBhC_KMGZr9s5L9kp-171" value="" style="shape=image;verticalLabelPosition=bottom;labelBackgroundColor=#ffffff;verticalAlign=top;aspect=fixed;imageAspect=0;image=data:image/png,iVBORw0KGgoAAAANSUhEUgAAAKYAAAAFCAYAAADPAJc3AAAAgUlEQVRIDe3XQQkAIRAF0IlgBKN4NIJHmxjDGEYwikdj/GWEgd0E/oURPl5Fn/IVACilIKVEm5wzWmvU6b1jzkmdvbce9y+G6CpjjBARj+/BdQNrrXNxHKZjvI7x/Sg6TAdJBdJwfmCyd6MxBnW/1P5ba6Xt6PZ/CCFQYjSUOhvMBzu4TiBN3omEAAAAAElFTkSuQmCC;" vertex="1" parent="1">
          <mxGeometry x="153" y="900.9300000000001" width="166" height="5" as="geometry" />
        </mxCell>
        <mxCell id="_qaNBhC_KMGZr9s5L9kp-172" value="" style="shape=image;verticalLabelPosition=bottom;labelBackgroundColor=#ffffff;verticalAlign=top;aspect=fixed;imageAspect=0;image=data:image/png,iVBORw0KGgoAAAANSUhEUgAAAJQAAAAECAYAAABoWhaXAAAAOUlEQVRIDWNgYGD4P4pHw4DSNPAfChgoNWhU/2hiBKUBGBhNUKMlNFVqqNEENZqQqJKQYDUULEEBAKsEZbe6GvysAAAAAElFTkSuQmCC;" vertex="1" parent="1">
          <mxGeometry x="167" y="981.9300000000001" width="143" height="3.86" as="geometry" />
        </mxCell>
        <mxCell id="_qaNBhC_KMGZr9s5L9kp-173" value="" style="shape=image;verticalLabelPosition=bottom;labelBackgroundColor=#ffffff;verticalAlign=top;aspect=fixed;imageAspect=0;image=data:image/png,iVBORw0KGgoAAAANSUhEUgAAAHwAAAAECAYAAABMb1sSAAAAL0lEQVRIDWNgYGD4P4qHfxj8hwKG0cge/pENimMYGI3wEVLCjUb4CIloWAkOi3AABs4GF2ClBkgAAAAASUVORK5CYII=;" vertex="1" parent="1">
          <mxGeometry x="174" y="1056.9299999999998" width="124" height="4" as="geometry" />
        </mxCell>
        <mxCell id="_qaNBhC_KMGZr9s5L9kp-174" value="" style="endArrow=none;html=1;exitX=0.024;exitY=0.6;exitDx=0;exitDy=0;exitPerimeter=0;strokeWidth=2;" edge="1" parent="1" source="_qaNBhC_KMGZr9s5L9kp-171">
          <mxGeometry width="50" height="50" relative="1" as="geometry">
            <mxPoint x="152" y="903.9300000000001" as="sourcePoint" />
            <mxPoint x="183" y="1129.93" as="targetPoint" />
          </mxGeometry>
        </mxCell>
        <mxCell id="_qaNBhC_KMGZr9s5L9kp-175" value="" style="endArrow=none;html=1;exitX=1;exitY=0.25;exitDx=0;exitDy=0;strokeWidth=2;" edge="1" parent="1" source="_qaNBhC_KMGZr9s5L9kp-171">
          <mxGeometry width="50" height="50" relative="1" as="geometry">
            <mxPoint x="355" y="910.9300000000001" as="sourcePoint" />
            <mxPoint x="286" y="1133.93" as="targetPoint" />
          </mxGeometry>
        </mxCell>
        <mxCell id="_qaNBhC_KMGZr9s5L9kp-176" value="" style="shape=image;verticalLabelPosition=bottom;labelBackgroundColor=#ffffff;verticalAlign=top;aspect=fixed;imageAspect=0;image=data:image/png,iVBORw0KGgoAAAANSUhEUgAAAHwAAAAECAYAAABMb1sSAAAAL0lEQVRIDWNgYGD4P4qHfxj8hwKG0cge/pENimMYGI3wEVLCjUb4CIloWAkOi3AABs4GF2ClBkgAAAAASUVORK5CYII=;" vertex="1" parent="1">
          <mxGeometry x="183" y="1128.9299999999998" width="103" height="3.32" as="geometry" />
        </mxCell>
        <mxCell id="_qaNBhC_KMGZr9s5L9kp-177" value="&lt;font style=&quot;font-size: 24px&quot;&gt;&lt;b&gt;CS&lt;/b&gt;&lt;/font&gt;" style="text;html=1;strokeColor=none;fillColor=none;align=center;verticalAlign=middle;whiteSpace=wrap;rounded=0;" vertex="1" parent="1">
          <mxGeometry x="214.5" y="1096.9299999999998" width="40" height="20" as="geometry" />
        </mxCell>
        <mxCell id="_qaNBhC_KMGZr9s5L9kp-178" value="&lt;font style=&quot;font-size: 24px&quot;&gt;&lt;b&gt;level&lt;/b&gt;&lt;/font&gt;" style="text;html=1;strokeColor=none;fillColor=none;align=center;verticalAlign=middle;whiteSpace=wrap;rounded=0;" vertex="1" parent="1">
          <mxGeometry x="62" y="821.9300000000001" width="70" height="37" as="geometry" />
        </mxCell>
        <mxCell id="_qaNBhC_KMGZr9s5L9kp-179" value="&lt;font style=&quot;font-size: 24px&quot;&gt;&lt;b&gt;1&lt;/b&gt;&lt;/font&gt;" style="text;html=1;strokeColor=none;fillColor=none;align=center;verticalAlign=middle;whiteSpace=wrap;rounded=0;" vertex="1" parent="1">
          <mxGeometry x="77" y="934.9300000000001" width="40" height="20" as="geometry" />
        </mxCell>
        <mxCell id="_qaNBhC_KMGZr9s5L9kp-180" value="&lt;font style=&quot;font-size: 24px&quot;&gt;&lt;b&gt;2&lt;/b&gt;&lt;/font&gt;" style="text;html=1;strokeColor=none;fillColor=none;align=center;verticalAlign=middle;whiteSpace=wrap;rounded=0;" vertex="1" parent="1">
          <mxGeometry x="77" y="1015.9299999999998" width="40" height="20" as="geometry" />
        </mxCell>
        <mxCell id="_qaNBhC_KMGZr9s5L9kp-181" value="&lt;font style=&quot;font-size: 24px&quot;&gt;&lt;b&gt;3&lt;/b&gt;&lt;/font&gt;" style="text;html=1;strokeColor=none;fillColor=none;align=center;verticalAlign=middle;whiteSpace=wrap;rounded=0;" vertex="1" parent="1">
          <mxGeometry x="77" y="1099.9299999999998" width="40" height="20" as="geometry" />
        </mxCell>
        <mxCell id="_qaNBhC_KMGZr9s5L9kp-182" value="&lt;font style=&quot;font-size: 24px&quot;&gt;&lt;b&gt;0&lt;/b&gt;&lt;/font&gt;" style="text;html=1;strokeColor=none;fillColor=none;align=center;verticalAlign=middle;whiteSpace=wrap;rounded=0;" vertex="1" parent="1">
          <mxGeometry x="77" y="867.93" width="40" height="20" as="geometry" />
        </mxCell>
        <mxCell id="_qaNBhC_KMGZr9s5L9kp-183" value="&lt;font style=&quot;font-size: 24px&quot; color=&quot;#ff99ff&quot;&gt;T0&lt;/font&gt;" style="text;html=1;strokeColor=none;fillColor=none;align=center;verticalAlign=middle;whiteSpace=wrap;rounded=0;" vertex="1" parent="1">
          <mxGeometry x="174" y="934.9300000000001" width="40" height="20" as="geometry" />
        </mxCell>
        <mxCell id="_qaNBhC_KMGZr9s5L9kp-184" value="&lt;font style=&quot;font-size: 24px&quot; color=&quot;#3333ff&quot;&gt;T1&lt;/font&gt;" style="text;html=1;strokeColor=none;fillColor=none;align=center;verticalAlign=middle;whiteSpace=wrap;rounded=0;" vertex="1" parent="1">
          <mxGeometry x="214.5" y="934.93" width="40" height="20" as="geometry" />
        </mxCell>
        <mxCell id="_qaNBhC_KMGZr9s5L9kp-185" value="&lt;font style=&quot;font-size: 24px&quot; color=&quot;#ff3333&quot;&gt;T2&lt;/font&gt;" style="text;html=1;strokeColor=none;fillColor=none;align=center;verticalAlign=middle;whiteSpace=wrap;rounded=0;" vertex="1" parent="1">
          <mxGeometry x="259" y="934.9299999999998" width="40" height="20" as="geometry" />
        </mxCell>
        <mxCell id="_qaNBhC_KMGZr9s5L9kp-186" value="&lt;font style=&quot;font-size: 24px&quot; color=&quot;#003333&quot;&gt;T3&lt;/font&gt;" style="text;html=1;strokeColor=none;fillColor=none;align=center;verticalAlign=middle;whiteSpace=wrap;rounded=0;" vertex="1" parent="1">
          <mxGeometry x="214" y="862" width="40" height="20" as="geometry" />
        </mxCell>
        <mxCell id="_qaNBhC_KMGZr9s5L9kp-187" value="&lt;span style=&quot;font-size: 24px&quot;&gt;&lt;b&gt;victim&lt;/b&gt;&lt;/span&gt;" style="text;html=1;strokeColor=none;fillColor=none;align=center;verticalAlign=middle;whiteSpace=wrap;rounded=0;" vertex="1" parent="1">
          <mxGeometry x="333" y="819" width="70" height="37" as="geometry" />
        </mxCell>
        <mxCell id="_qaNBhC_KMGZr9s5L9kp-188" value="&lt;b style=&quot;font-size: 24px&quot;&gt;3&lt;/b&gt;" style="text;html=1;strokeColor=none;fillColor=none;align=center;verticalAlign=middle;whiteSpace=wrap;rounded=0;" vertex="1" parent="1">
          <mxGeometry x="350" y="862" width="40" height="20" as="geometry" />
        </mxCell>
        <mxCell id="_qaNBhC_KMGZr9s5L9kp-189" value="&lt;b style=&quot;font-size: 24px&quot;&gt;1&lt;/b&gt;" style="text;html=1;strokeColor=none;fillColor=none;align=center;verticalAlign=middle;whiteSpace=wrap;rounded=0;" vertex="1" parent="1">
          <mxGeometry x="350" y="929" width="40" height="20" as="geometry" />
        </mxCell>
        <mxCell id="_qaNBhC_KMGZr9s5L9kp-190" value="&lt;b style=&quot;font-size: 24px&quot;&gt;3&lt;/b&gt;" style="text;html=1;strokeColor=none;fillColor=none;align=center;verticalAlign=middle;whiteSpace=wrap;rounded=0;" vertex="1" parent="1">
          <mxGeometry x="350" y="1009.9999999999999" width="40" height="20" as="geometry" />
        </mxCell>
        <mxCell id="_qaNBhC_KMGZr9s5L9kp-191" value="&lt;b style=&quot;font-size: 24px&quot;&gt;3&lt;/b&gt;" style="text;html=1;strokeColor=none;fillColor=none;align=center;verticalAlign=middle;whiteSpace=wrap;rounded=0;" vertex="1" parent="1">
          <mxGeometry x="348" y="1094" width="40" height="20" as="geometry" />
        </mxCell>
        <mxCell id="_qaNBhC_KMGZr9s5L9kp-192" value="" style="shape=image;verticalLabelPosition=bottom;labelBackgroundColor=#ffffff;verticalAlign=top;aspect=fixed;imageAspect=0;image=data:image/png,iVBORw0KGgoAAAANSUhEUgAAAKYAAAAFCAYAAADPAJc3AAAAgUlEQVRIDe3XQQkAIRAF0IlgBKN4NIJHmxjDGEYwikdj/GWEgd0E/oURPl5Fn/IVACilIKVEm5wzWmvU6b1jzkmdvbce9y+G6CpjjBARj+/BdQNrrXNxHKZjvI7x/Sg6TAdJBdJwfmCyd6MxBnW/1P5ba6Xt6PZ/CCFQYjSUOhvMBzu4TiBN3omEAAAAAElFTkSuQmCC;" vertex="1" parent="1">
          <mxGeometry x="601" y="905.9300000000001" width="166" height="5" as="geometry" />
        </mxCell>
        <mxCell id="_qaNBhC_KMGZr9s5L9kp-193" value="" style="shape=image;verticalLabelPosition=bottom;labelBackgroundColor=#ffffff;verticalAlign=top;aspect=fixed;imageAspect=0;image=data:image/png,iVBORw0KGgoAAAANSUhEUgAAAJQAAAAECAYAAABoWhaXAAAAOUlEQVRIDWNgYGD4P4pHw4DSNPAfChgoNWhU/2hiBKUBGBhNUKMlNFVqqNEENZqQqJKQYDUULEEBAKsEZbe6GvysAAAAAElFTkSuQmCC;" vertex="1" parent="1">
          <mxGeometry x="615" y="986.9300000000001" width="143" height="3.86" as="geometry" />
        </mxCell>
        <mxCell id="_qaNBhC_KMGZr9s5L9kp-194" value="" style="shape=image;verticalLabelPosition=bottom;labelBackgroundColor=#ffffff;verticalAlign=top;aspect=fixed;imageAspect=0;image=data:image/png,iVBORw0KGgoAAAANSUhEUgAAAHwAAAAECAYAAABMb1sSAAAAL0lEQVRIDWNgYGD4P4qHfxj8hwKG0cge/pENimMYGI3wEVLCjUb4CIloWAkOi3AABs4GF2ClBkgAAAAASUVORK5CYII=;" vertex="1" parent="1">
          <mxGeometry x="622" y="1061.9299999999998" width="124" height="4" as="geometry" />
        </mxCell>
        <mxCell id="_qaNBhC_KMGZr9s5L9kp-195" value="" style="endArrow=none;html=1;exitX=0.024;exitY=0.6;exitDx=0;exitDy=0;exitPerimeter=0;strokeWidth=2;" edge="1" parent="1" source="_qaNBhC_KMGZr9s5L9kp-192">
          <mxGeometry width="50" height="50" relative="1" as="geometry">
            <mxPoint x="600" y="908.9300000000001" as="sourcePoint" />
            <mxPoint x="631" y="1134.9300000000003" as="targetPoint" />
          </mxGeometry>
        </mxCell>
        <mxCell id="_qaNBhC_KMGZr9s5L9kp-196" value="" style="endArrow=none;html=1;exitX=1;exitY=0.25;exitDx=0;exitDy=0;strokeWidth=2;" edge="1" parent="1" source="_qaNBhC_KMGZr9s5L9kp-192">
          <mxGeometry width="50" height="50" relative="1" as="geometry">
            <mxPoint x="803" y="915.9300000000001" as="sourcePoint" />
            <mxPoint x="734" y="1138.9300000000003" as="targetPoint" />
          </mxGeometry>
        </mxCell>
        <mxCell id="_qaNBhC_KMGZr9s5L9kp-197" value="" style="shape=image;verticalLabelPosition=bottom;labelBackgroundColor=#ffffff;verticalAlign=top;aspect=fixed;imageAspect=0;image=data:image/png,iVBORw0KGgoAAAANSUhEUgAAAHwAAAAECAYAAABMb1sSAAAAL0lEQVRIDWNgYGD4P4qHfxj8hwKG0cge/pENimMYGI3wEVLCjUb4CIloWAkOi3AABs4GF2ClBkgAAAAASUVORK5CYII=;" vertex="1" parent="1">
          <mxGeometry x="631" y="1133.9299999999998" width="103" height="3.32" as="geometry" />
        </mxCell>
        <mxCell id="_qaNBhC_KMGZr9s5L9kp-198" value="&lt;font style=&quot;font-size: 24px&quot;&gt;&lt;b&gt;CS&lt;/b&gt;&lt;/font&gt;" style="text;html=1;strokeColor=none;fillColor=none;align=center;verticalAlign=middle;whiteSpace=wrap;rounded=0;" vertex="1" parent="1">
          <mxGeometry x="662.5" y="1101.9299999999998" width="40" height="20" as="geometry" />
        </mxCell>
        <mxCell id="_qaNBhC_KMGZr9s5L9kp-199" value="&lt;font style=&quot;font-size: 24px&quot;&gt;&lt;b&gt;level&lt;/b&gt;&lt;/font&gt;" style="text;html=1;strokeColor=none;fillColor=none;align=center;verticalAlign=middle;whiteSpace=wrap;rounded=0;" vertex="1" parent="1">
          <mxGeometry x="510" y="826.9300000000001" width="70" height="37" as="geometry" />
        </mxCell>
        <mxCell id="_qaNBhC_KMGZr9s5L9kp-200" value="&lt;font style=&quot;font-size: 24px&quot;&gt;&lt;b&gt;1&lt;/b&gt;&lt;/font&gt;" style="text;html=1;strokeColor=none;fillColor=none;align=center;verticalAlign=middle;whiteSpace=wrap;rounded=0;" vertex="1" parent="1">
          <mxGeometry x="525" y="939.9300000000001" width="40" height="20" as="geometry" />
        </mxCell>
        <mxCell id="_qaNBhC_KMGZr9s5L9kp-201" value="&lt;font style=&quot;font-size: 24px&quot;&gt;&lt;b&gt;2&lt;/b&gt;&lt;/font&gt;" style="text;html=1;strokeColor=none;fillColor=none;align=center;verticalAlign=middle;whiteSpace=wrap;rounded=0;" vertex="1" parent="1">
          <mxGeometry x="525" y="1020.9299999999997" width="40" height="20" as="geometry" />
        </mxCell>
        <mxCell id="_qaNBhC_KMGZr9s5L9kp-202" value="&lt;font style=&quot;font-size: 24px&quot;&gt;&lt;b&gt;3&lt;/b&gt;&lt;/font&gt;" style="text;html=1;strokeColor=none;fillColor=none;align=center;verticalAlign=middle;whiteSpace=wrap;rounded=0;" vertex="1" parent="1">
          <mxGeometry x="525" y="1104.9299999999998" width="40" height="20" as="geometry" />
        </mxCell>
        <mxCell id="_qaNBhC_KMGZr9s5L9kp-203" value="&lt;font style=&quot;font-size: 24px&quot;&gt;&lt;b&gt;0&lt;/b&gt;&lt;/font&gt;" style="text;html=1;strokeColor=none;fillColor=none;align=center;verticalAlign=middle;whiteSpace=wrap;rounded=0;" vertex="1" parent="1">
          <mxGeometry x="525" y="872.93" width="40" height="20" as="geometry" />
        </mxCell>
        <mxCell id="_qaNBhC_KMGZr9s5L9kp-204" value="&lt;font style=&quot;font-size: 24px&quot; color=&quot;#ff99ff&quot;&gt;T0&lt;/font&gt;" style="text;html=1;strokeColor=none;fillColor=none;align=center;verticalAlign=middle;whiteSpace=wrap;rounded=0;" vertex="1" parent="1">
          <mxGeometry x="622" y="939.9300000000001" width="40" height="20" as="geometry" />
        </mxCell>
        <mxCell id="_qaNBhC_KMGZr9s5L9kp-205" value="&lt;font style=&quot;font-size: 24px&quot; color=&quot;#3333ff&quot;&gt;T1&lt;/font&gt;" style="text;html=1;strokeColor=none;fillColor=none;align=center;verticalAlign=middle;whiteSpace=wrap;rounded=0;" vertex="1" parent="1">
          <mxGeometry x="694.5" y="937.93" width="40" height="20" as="geometry" />
        </mxCell>
        <mxCell id="_qaNBhC_KMGZr9s5L9kp-206" value="&lt;font style=&quot;font-size: 24px&quot; color=&quot;#ff3333&quot;&gt;T2&lt;/font&gt;" style="text;html=1;strokeColor=none;fillColor=none;align=center;verticalAlign=middle;whiteSpace=wrap;rounded=0;" vertex="1" parent="1">
          <mxGeometry x="664.5" y="1016.9299999999997" width="40" height="20" as="geometry" />
        </mxCell>
        <mxCell id="_qaNBhC_KMGZr9s5L9kp-207" value="&lt;font style=&quot;font-size: 24px&quot; color=&quot;#003333&quot;&gt;T3&lt;/font&gt;" style="text;html=1;strokeColor=none;fillColor=none;align=center;verticalAlign=middle;whiteSpace=wrap;rounded=0;" vertex="1" parent="1">
          <mxGeometry x="662" y="867" width="40" height="20" as="geometry" />
        </mxCell>
        <mxCell id="_qaNBhC_KMGZr9s5L9kp-208" value="&lt;span style=&quot;font-size: 24px&quot;&gt;&lt;b&gt;victim&lt;/b&gt;&lt;/span&gt;" style="text;html=1;strokeColor=none;fillColor=none;align=center;verticalAlign=middle;whiteSpace=wrap;rounded=0;" vertex="1" parent="1">
          <mxGeometry x="781" y="824" width="70" height="37" as="geometry" />
        </mxCell>
        <mxCell id="_qaNBhC_KMGZr9s5L9kp-209" value="&lt;b style=&quot;font-size: 24px&quot;&gt;3&lt;/b&gt;" style="text;html=1;strokeColor=none;fillColor=none;align=center;verticalAlign=middle;whiteSpace=wrap;rounded=0;" vertex="1" parent="1">
          <mxGeometry x="798" y="867" width="40" height="20" as="geometry" />
        </mxCell>
        <mxCell id="_qaNBhC_KMGZr9s5L9kp-210" value="&lt;b style=&quot;font-size: 24px&quot;&gt;1&lt;/b&gt;" style="text;html=1;strokeColor=none;fillColor=none;align=center;verticalAlign=middle;whiteSpace=wrap;rounded=0;" vertex="1" parent="1">
          <mxGeometry x="798" y="934" width="40" height="20" as="geometry" />
        </mxCell>
        <mxCell id="_qaNBhC_KMGZr9s5L9kp-211" value="&lt;b style=&quot;font-size: 24px&quot;&gt;2&lt;/b&gt;" style="text;html=1;strokeColor=none;fillColor=none;align=center;verticalAlign=middle;whiteSpace=wrap;rounded=0;" vertex="1" parent="1">
          <mxGeometry x="798" y="1014.9999999999999" width="40" height="20" as="geometry" />
        </mxCell>
        <mxCell id="_qaNBhC_KMGZr9s5L9kp-212" value="&lt;b style=&quot;font-size: 24px&quot;&gt;3&lt;/b&gt;" style="text;html=1;strokeColor=none;fillColor=none;align=center;verticalAlign=middle;whiteSpace=wrap;rounded=0;" vertex="1" parent="1">
          <mxGeometry x="796" y="1099" width="40" height="20" as="geometry" />
        </mxCell>
        <mxCell id="_qaNBhC_KMGZr9s5L9kp-215" value="" style="shape=image;verticalLabelPosition=bottom;labelBackgroundColor=#ffffff;verticalAlign=top;aspect=fixed;imageAspect=0;image=data:image/png,iVBORw0KGgoAAAANSUhEUgAAAKYAAAAFCAYAAADPAJc3AAAAgUlEQVRIDe3XQQkAIRAF0IlgBKN4NIJHmxjDGEYwikdj/GWEgd0E/oURPl5Fn/IVACilIKVEm5wzWmvU6b1jzkmdvbce9y+G6CpjjBARj+/BdQNrrXNxHKZjvI7x/Sg6TAdJBdJwfmCyd6MxBnW/1P5ba6Xt6PZ/CCFQYjSUOhvMBzu4TiBN3omEAAAAAElFTkSuQmCC;" vertex="1" parent="1">
          <mxGeometry x="1049" y="905.9300000000001" width="166" height="5" as="geometry" />
        </mxCell>
        <mxCell id="_qaNBhC_KMGZr9s5L9kp-216" value="" style="shape=image;verticalLabelPosition=bottom;labelBackgroundColor=#ffffff;verticalAlign=top;aspect=fixed;imageAspect=0;image=data:image/png,iVBORw0KGgoAAAANSUhEUgAAAJQAAAAECAYAAABoWhaXAAAAOUlEQVRIDWNgYGD4P4pHw4DSNPAfChgoNWhU/2hiBKUBGBhNUKMlNFVqqNEENZqQqJKQYDUULEEBAKsEZbe6GvysAAAAAElFTkSuQmCC;" vertex="1" parent="1">
          <mxGeometry x="1063" y="986.9300000000001" width="143" height="3.86" as="geometry" />
        </mxCell>
        <mxCell id="_qaNBhC_KMGZr9s5L9kp-217" value="" style="shape=image;verticalLabelPosition=bottom;labelBackgroundColor=#ffffff;verticalAlign=top;aspect=fixed;imageAspect=0;image=data:image/png,iVBORw0KGgoAAAANSUhEUgAAAHwAAAAECAYAAABMb1sSAAAAL0lEQVRIDWNgYGD4P4qHfxj8hwKG0cge/pENimMYGI3wEVLCjUb4CIloWAkOi3AABs4GF2ClBkgAAAAASUVORK5CYII=;" vertex="1" parent="1">
          <mxGeometry x="1070" y="1061.9299999999996" width="124" height="4" as="geometry" />
        </mxCell>
        <mxCell id="_qaNBhC_KMGZr9s5L9kp-218" value="" style="endArrow=none;html=1;exitX=0.024;exitY=0.6;exitDx=0;exitDy=0;exitPerimeter=0;strokeWidth=2;" edge="1" parent="1" source="_qaNBhC_KMGZr9s5L9kp-215">
          <mxGeometry width="50" height="50" relative="1" as="geometry">
            <mxPoint x="1048" y="908.9300000000001" as="sourcePoint" />
            <mxPoint x="1079" y="1134.93" as="targetPoint" />
          </mxGeometry>
        </mxCell>
        <mxCell id="_qaNBhC_KMGZr9s5L9kp-219" value="" style="endArrow=none;html=1;exitX=1;exitY=0.25;exitDx=0;exitDy=0;strokeWidth=2;" edge="1" parent="1" source="_qaNBhC_KMGZr9s5L9kp-215">
          <mxGeometry width="50" height="50" relative="1" as="geometry">
            <mxPoint x="1251" y="915.9300000000001" as="sourcePoint" />
            <mxPoint x="1182" y="1138.93" as="targetPoint" />
          </mxGeometry>
        </mxCell>
        <mxCell id="_qaNBhC_KMGZr9s5L9kp-220" value="" style="shape=image;verticalLabelPosition=bottom;labelBackgroundColor=#ffffff;verticalAlign=top;aspect=fixed;imageAspect=0;image=data:image/png,iVBORw0KGgoAAAANSUhEUgAAAHwAAAAECAYAAABMb1sSAAAAL0lEQVRIDWNgYGD4P4qHfxj8hwKG0cge/pENimMYGI3wEVLCjUb4CIloWAkOi3AABs4GF2ClBkgAAAAASUVORK5CYII=;" vertex="1" parent="1">
          <mxGeometry x="1079" y="1133.9299999999996" width="103" height="3.32" as="geometry" />
        </mxCell>
        <mxCell id="_qaNBhC_KMGZr9s5L9kp-221" value="&lt;font style=&quot;font-size: 24px&quot;&gt;&lt;b&gt;CS&lt;/b&gt;&lt;/font&gt;" style="text;html=1;strokeColor=none;fillColor=none;align=center;verticalAlign=middle;whiteSpace=wrap;rounded=0;" vertex="1" parent="1">
          <mxGeometry x="1110.5" y="1101.9299999999996" width="40" height="20" as="geometry" />
        </mxCell>
        <mxCell id="_qaNBhC_KMGZr9s5L9kp-222" value="&lt;font style=&quot;font-size: 24px&quot;&gt;&lt;b&gt;level&lt;/b&gt;&lt;/font&gt;" style="text;html=1;strokeColor=none;fillColor=none;align=center;verticalAlign=middle;whiteSpace=wrap;rounded=0;" vertex="1" parent="1">
          <mxGeometry x="958" y="826.9300000000001" width="70" height="37" as="geometry" />
        </mxCell>
        <mxCell id="_qaNBhC_KMGZr9s5L9kp-223" value="&lt;font style=&quot;font-size: 24px&quot;&gt;&lt;b&gt;1&lt;/b&gt;&lt;/font&gt;" style="text;html=1;strokeColor=none;fillColor=none;align=center;verticalAlign=middle;whiteSpace=wrap;rounded=0;" vertex="1" parent="1">
          <mxGeometry x="973" y="939.9300000000001" width="40" height="20" as="geometry" />
        </mxCell>
        <mxCell id="_qaNBhC_KMGZr9s5L9kp-224" value="&lt;font style=&quot;font-size: 24px&quot;&gt;&lt;b&gt;2&lt;/b&gt;&lt;/font&gt;" style="text;html=1;strokeColor=none;fillColor=none;align=center;verticalAlign=middle;whiteSpace=wrap;rounded=0;" vertex="1" parent="1">
          <mxGeometry x="973" y="1020.93" width="40" height="20" as="geometry" />
        </mxCell>
        <mxCell id="_qaNBhC_KMGZr9s5L9kp-225" value="&lt;font style=&quot;font-size: 24px&quot;&gt;&lt;b&gt;3&lt;/b&gt;&lt;/font&gt;" style="text;html=1;strokeColor=none;fillColor=none;align=center;verticalAlign=middle;whiteSpace=wrap;rounded=0;" vertex="1" parent="1">
          <mxGeometry x="973" y="1104.9299999999996" width="40" height="20" as="geometry" />
        </mxCell>
        <mxCell id="_qaNBhC_KMGZr9s5L9kp-226" value="&lt;font style=&quot;font-size: 24px&quot;&gt;&lt;b&gt;0&lt;/b&gt;&lt;/font&gt;" style="text;html=1;strokeColor=none;fillColor=none;align=center;verticalAlign=middle;whiteSpace=wrap;rounded=0;" vertex="1" parent="1">
          <mxGeometry x="973" y="872.93" width="40" height="20" as="geometry" />
        </mxCell>
        <mxCell id="_qaNBhC_KMGZr9s5L9kp-227" value="&lt;font style=&quot;font-size: 24px&quot; color=&quot;#ff99ff&quot;&gt;T0&lt;/font&gt;" style="text;html=1;strokeColor=none;fillColor=none;align=center;verticalAlign=middle;whiteSpace=wrap;rounded=0;" vertex="1" parent="1">
          <mxGeometry x="1070" y="939.9300000000001" width="40" height="20" as="geometry" />
        </mxCell>
        <mxCell id="_qaNBhC_KMGZr9s5L9kp-228" value="&lt;font style=&quot;font-size: 24px&quot; color=&quot;#3333ff&quot;&gt;T1&lt;/font&gt;" style="text;html=1;strokeColor=none;fillColor=none;align=center;verticalAlign=middle;whiteSpace=wrap;rounded=0;" vertex="1" parent="1">
          <mxGeometry x="1142.5" y="937.93" width="40" height="20" as="geometry" />
        </mxCell>
        <mxCell id="_qaNBhC_KMGZr9s5L9kp-229" value="&lt;font style=&quot;font-size: 24px&quot; color=&quot;#ff3333&quot;&gt;T2&lt;/font&gt;" style="text;html=1;strokeColor=none;fillColor=none;align=center;verticalAlign=middle;whiteSpace=wrap;rounded=0;" vertex="1" parent="1">
          <mxGeometry x="1110.5" y="1070.9999999999995" width="40" height="20" as="geometry" />
        </mxCell>
        <mxCell id="_qaNBhC_KMGZr9s5L9kp-230" value="&lt;font style=&quot;font-size: 24px&quot; color=&quot;#003333&quot;&gt;T3&lt;/font&gt;" style="text;html=1;strokeColor=none;fillColor=none;align=center;verticalAlign=middle;whiteSpace=wrap;rounded=0;" vertex="1" parent="1">
          <mxGeometry x="1110" y="867" width="40" height="20" as="geometry" />
        </mxCell>
        <mxCell id="_qaNBhC_KMGZr9s5L9kp-231" value="&lt;span style=&quot;font-size: 24px&quot;&gt;&lt;b&gt;victim&lt;/b&gt;&lt;/span&gt;" style="text;html=1;strokeColor=none;fillColor=none;align=center;verticalAlign=middle;whiteSpace=wrap;rounded=0;" vertex="1" parent="1">
          <mxGeometry x="1229" y="824" width="70" height="37" as="geometry" />
        </mxCell>
        <mxCell id="_qaNBhC_KMGZr9s5L9kp-232" value="&lt;b style=&quot;font-size: 24px&quot;&gt;3&lt;/b&gt;" style="text;html=1;strokeColor=none;fillColor=none;align=center;verticalAlign=middle;whiteSpace=wrap;rounded=0;" vertex="1" parent="1">
          <mxGeometry x="1246" y="864.6" width="40" height="22.4" as="geometry" />
        </mxCell>
        <mxCell id="_qaNBhC_KMGZr9s5L9kp-233" value="&lt;b style=&quot;font-size: 24px&quot;&gt;1&lt;/b&gt;" style="text;html=1;strokeColor=none;fillColor=none;align=center;verticalAlign=middle;whiteSpace=wrap;rounded=0;" vertex="1" parent="1">
          <mxGeometry x="1246" y="934" width="40" height="20" as="geometry" />
        </mxCell>
        <mxCell id="_qaNBhC_KMGZr9s5L9kp-234" value="&lt;b style=&quot;font-size: 24px&quot;&gt;2&lt;/b&gt;" style="text;html=1;strokeColor=none;fillColor=none;align=center;verticalAlign=middle;whiteSpace=wrap;rounded=0;" vertex="1" parent="1">
          <mxGeometry x="1246" y="1015.0000000000001" width="40" height="20" as="geometry" />
        </mxCell>
        <mxCell id="_qaNBhC_KMGZr9s5L9kp-235" value="&lt;b style=&quot;font-size: 24px&quot;&gt;2&lt;/b&gt;" style="text;html=1;strokeColor=none;fillColor=none;align=center;verticalAlign=middle;whiteSpace=wrap;rounded=0;" vertex="1" parent="1">
          <mxGeometry x="1244" y="1098.9999999999998" width="40" height="20" as="geometry" />
        </mxCell>
        <mxCell id="_qaNBhC_KMGZr9s5L9kp-236" value="" style="shape=singleArrow;whiteSpace=wrap;html=1;arrowWidth=0.5111111111111111;arrowSize=0.5094339622641509;" vertex="1" parent="1">
          <mxGeometry x="430" y="165.26" width="53" height="45" as="geometry" />
        </mxCell>
        <mxCell id="_qaNBhC_KMGZr9s5L9kp-237" value="" style="shape=singleArrow;whiteSpace=wrap;html=1;arrowWidth=0.5111111111111111;arrowSize=0.5094339622641509;" vertex="1" parent="1">
          <mxGeometry x="869" y="159.32999999999998" width="53" height="45" as="geometry" />
        </mxCell>
        <mxCell id="_qaNBhC_KMGZr9s5L9kp-241" value="" style="endArrow=none;html=1;strokeWidth=2;entryX=0.5;entryY=0;entryDx=0;entryDy=0;" edge="1" parent="1" target="_qaNBhC_KMGZr9s5L9kp-91">
          <mxGeometry width="50" height="50" relative="1" as="geometry">
            <mxPoint x="1118" y="354" as="sourcePoint" />
            <mxPoint x="1211" y="345" as="targetPoint" />
          </mxGeometry>
        </mxCell>
        <mxCell id="_qaNBhC_KMGZr9s5L9kp-242" value="" style="edgeStyle=elbowEdgeStyle;elbow=horizontal;endArrow=classic;html=1;strokeWidth=2;" edge="1" parent="1">
          <mxGeometry width="50" height="50" relative="1" as="geometry">
            <mxPoint x="1088.5" y="1245" as="sourcePoint" />
            <mxPoint x="210.5" y="1315" as="targetPoint" />
            <Array as="points">
              <mxPoint x="210.5" y="1258" />
            </Array>
          </mxGeometry>
        </mxCell>
        <mxCell id="_qaNBhC_KMGZr9s5L9kp-244" value="" style="shape=singleArrow;whiteSpace=wrap;html=1;arrowWidth=0.5111111111111111;arrowSize=0.5094339622641509;" vertex="1" parent="1">
          <mxGeometry x="428.5" y="586.54" width="53" height="45" as="geometry" />
        </mxCell>
        <mxCell id="_qaNBhC_KMGZr9s5L9kp-245" value="" style="shape=singleArrow;whiteSpace=wrap;html=1;arrowWidth=0.5111111111111111;arrowSize=0.5094339622641509;" vertex="1" parent="1">
          <mxGeometry x="884.5" y="583.61" width="53" height="45" as="geometry" />
        </mxCell>
        <mxCell id="_qaNBhC_KMGZr9s5L9kp-246" value="" style="shape=singleArrow;whiteSpace=wrap;html=1;arrowWidth=0.5111111111111111;arrowSize=0.5094339622641509;" vertex="1" parent="1">
          <mxGeometry x="423" y="1020" width="53" height="45" as="geometry" />
        </mxCell>
        <mxCell id="_qaNBhC_KMGZr9s5L9kp-247" value="" style="shape=singleArrow;whiteSpace=wrap;html=1;arrowWidth=0.5111111111111111;arrowSize=0.5094339622641509;" vertex="1" parent="1">
          <mxGeometry x="884" y="1006.71" width="53" height="45" as="geometry" />
        </mxCell>
        <mxCell id="_qaNBhC_KMGZr9s5L9kp-250" value="" style="endArrow=none;html=1;strokeWidth=3;entryX=0.5;entryY=0;entryDx=0;entryDy=0;" edge="1" parent="1">
          <mxGeometry width="50" height="50" relative="1" as="geometry">
            <mxPoint x="1118" y="387" as="sourcePoint" />
            <mxPoint x="1117.5" y="323.26" as="targetPoint" />
          </mxGeometry>
        </mxCell>
        <mxCell id="_qaNBhC_KMGZr9s5L9kp-251" value="" style="edgeStyle=elbowEdgeStyle;elbow=horizontal;endArrow=classic;html=1;strokeWidth=3;" edge="1" parent="1">
          <mxGeometry width="50" height="50" relative="1" as="geometry">
            <mxPoint x="1113.5" y="386" as="sourcePoint" />
            <mxPoint x="235.5" y="456" as="targetPoint" />
            <Array as="points">
              <mxPoint x="235.5" y="399" />
            </Array>
          </mxGeometry>
        </mxCell>
        <mxCell id="_qaNBhC_KMGZr9s5L9kp-252" value="" style="endArrow=none;html=1;strokeWidth=3;entryX=0.5;entryY=0;entryDx=0;entryDy=0;" edge="1" parent="1">
          <mxGeometry width="50" height="50" relative="1" as="geometry">
            <mxPoint x="1122" y="796" as="sourcePoint" />
            <mxPoint x="1122" y="736.86" as="targetPoint" />
          </mxGeometry>
        </mxCell>
        <mxCell id="_qaNBhC_KMGZr9s5L9kp-253" value="" style="edgeStyle=elbowEdgeStyle;elbow=horizontal;endArrow=classic;html=1;strokeWidth=3;" edge="1" parent="1">
          <mxGeometry width="50" height="50" relative="1" as="geometry">
            <mxPoint x="1125" y="792" as="sourcePoint" />
            <mxPoint x="231.5" y="862.0000000000001" as="targetPoint" />
            <Array as="points">
              <mxPoint x="231.5" y="805.0000000000001" />
            </Array>
          </mxGeometry>
        </mxCell>
        <mxCell id="_qaNBhC_KMGZr9s5L9kp-254" value="&lt;font style=&quot;font-size: 24px&quot;&gt;&lt;b&gt;(1)&lt;/b&gt;&lt;/font&gt;" style="text;html=1;strokeColor=none;fillColor=none;align=center;verticalAlign=middle;whiteSpace=wrap;rounded=0;" vertex="1" parent="1">
          <mxGeometry x="196" y="314.26" width="70" height="37" as="geometry" />
        </mxCell>
        <mxCell id="_qaNBhC_KMGZr9s5L9kp-255" value="&lt;font style=&quot;font-size: 24px&quot;&gt;&lt;b&gt;(3)&lt;/b&gt;&lt;/font&gt;" style="text;html=1;strokeColor=none;fillColor=none;align=center;verticalAlign=middle;whiteSpace=wrap;rounded=0;" vertex="1" parent="1">
          <mxGeometry x="1108.5" y="326.58" width="70" height="37" as="geometry" />
        </mxCell>
        <mxCell id="_qaNBhC_KMGZr9s5L9kp-256" value="&lt;font style=&quot;font-size: 24px&quot;&gt;&lt;b&gt;(2)&lt;/b&gt;&lt;/font&gt;" style="text;html=1;strokeColor=none;fillColor=none;align=center;verticalAlign=middle;whiteSpace=wrap;rounded=0;" vertex="1" parent="1">
          <mxGeometry x="639.5" y="319.18" width="70" height="37" as="geometry" />
        </mxCell>
        <mxCell id="_qaNBhC_KMGZr9s5L9kp-258" value="&lt;font style=&quot;font-size: 24px&quot;&gt;&lt;b&gt;(4)&lt;/b&gt;&lt;/font&gt;" style="text;html=1;strokeColor=none;fillColor=none;align=center;verticalAlign=middle;whiteSpace=wrap;rounded=0;" vertex="1" parent="1">
          <mxGeometry x="193" y="742" width="70" height="37" as="geometry" />
        </mxCell>
        <mxCell id="_qaNBhC_KMGZr9s5L9kp-259" value="&lt;font style=&quot;font-size: 24px&quot;&gt;&lt;b&gt;(5)&lt;/b&gt;&lt;/font&gt;" style="text;html=1;strokeColor=none;fillColor=none;align=center;verticalAlign=middle;whiteSpace=wrap;rounded=0;" vertex="1" parent="1">
          <mxGeometry x="639.5" y="742" width="70" height="37" as="geometry" />
        </mxCell>
        <mxCell id="_qaNBhC_KMGZr9s5L9kp-260" value="&lt;font style=&quot;font-size: 24px&quot;&gt;&lt;b&gt;(6)&lt;/b&gt;&lt;/font&gt;" style="text;html=1;strokeColor=none;fillColor=none;align=center;verticalAlign=middle;whiteSpace=wrap;rounded=0;" vertex="1" parent="1">
          <mxGeometry x="1115.5" y="742" width="70" height="37" as="geometry" />
        </mxCell>
        <mxCell id="_qaNBhC_KMGZr9s5L9kp-261" value="&lt;font style=&quot;font-size: 24px&quot;&gt;&lt;b&gt;(7)&lt;/b&gt;&lt;/font&gt;" style="text;html=1;strokeColor=none;fillColor=none;align=center;verticalAlign=middle;whiteSpace=wrap;rounded=0;" vertex="1" parent="1">
          <mxGeometry x="199.5" y="1128.93" width="70" height="37" as="geometry" />
        </mxCell>
        <mxCell id="_qaNBhC_KMGZr9s5L9kp-262" value="&lt;font style=&quot;font-size: 24px&quot;&gt;&lt;b&gt;(8)&lt;/b&gt;&lt;/font&gt;" style="text;html=1;strokeColor=none;fillColor=none;align=center;verticalAlign=middle;whiteSpace=wrap;rounded=0;" vertex="1" parent="1">
          <mxGeometry x="651.5" y="1133.93" width="70" height="37" as="geometry" />
        </mxCell>
        <mxCell id="_qaNBhC_KMGZr9s5L9kp-263" value="&lt;font style=&quot;font-size: 24px&quot;&gt;&lt;b&gt;(9)&lt;/b&gt;&lt;/font&gt;" style="text;html=1;strokeColor=none;fillColor=none;align=center;verticalAlign=middle;whiteSpace=wrap;rounded=0;" vertex="1" parent="1">
          <mxGeometry x="1099.5" y="1132.25" width="70" height="37" as="geometry" />
        </mxCell>
      </root>
    </mxGraphModel>
  </diagram>
</mxfile>
